<svg width="721" height="1024" viewBox="0 0 721 1024" fill="none" xmlns="http://www.w3.org/2000/svg">
<rect width="721" height="1024" fill="#9D82C4"/>
<mask id="mask0_32_1999" style="mask-type:alpha" maskUnits="userSpaceOnUse" x="0" y="0" width="721" height="1024">
<rect width="721" height="1024" fill="#007AFF"/>
</mask>
<g mask="url(#mask0_32_1999)">
<mask id="mask1_32_1999" style="mask-type:alpha" maskUnits="userSpaceOnUse" x="-506" y="-297" width="2631" height="2103">
<g opacity="0.25">
<path d="M324.624 830.305C432.615 957.441 528.473 1100.87 624.146 1232.53C847.842 1539.72 1132.38 1820.64 1518.17 1800.47C1959.67 1777.62 2252.88 1340.96 2061.46 898.092C1915.76 560.805 1603.89 336.775 1292 198.11C1010.59 72.4343 723.212 -39.209 432.587 -138.315C213.924 -213.006 -75.4353 -362.9 -302.215 -253.547C-518.754 -149.433 -569.715 154.924 -401.687 336.011C-295.257 451.387 -145.568 472.939 -14.4519 538.801C117.364 605.393 229.252 717.779 324.624 830.305Z" stroke="white" stroke-width="8" stroke-miterlimit="10"/>
<path d="M610.625 977.377C768.69 1181.36 923.956 1382.43 1150.29 1507.09C1300.25 1589.72 1483.34 1634.54 1644.54 1556.65C1754.52 1503.48 1845.69 1393.06 1894.09 1275.64C1973.61 1080.69 1894.23 890.765 1753.07 755.077C1313.49 331.222 738.314 81.4462 161.881 -29.2336C119.776 -36.9738 77.6713 -44.714 34.8896 -51.7126C-44.4458 -63.5545 -130.686 -76.8098 -204.359 -34.9786C-247.332 -10.3319 -283.098 34.8593 -287.771 87.8835C-293.142 140.178 -267.535 192.947 -232.548 229.447C-147.158 319.979 -22.8486 346.896 75.3048 417.452C256.31 548.389 409.037 719.303 548.794 896.949C569.179 924.006 589.564 951.062 610.625 977.377Z" stroke="white" stroke-width="8" stroke-miterlimit="10"/>
<path d="M732.584 878.498C858.276 1037.13 981.193 1194.31 1158.26 1293.64C1275.61 1359.62 1418.65 1395.94 1545.77 1338.94C1633.25 1299.94 1709.03 1216.88 1746.79 1123.1C1793.15 1007.91 1767.3 895.537 1705.26 801.864C1684.8 770.393 1659.57 741.169 1631.6 713.441C1389.77 478.518 1098.03 308.775 789.284 195.104C657.07 146.913 521.565 108.316 384.869 81.5034C351.722 74.4236 317.921 69.5571 284.797 63.949C222.023 54.9112 154.422 45.178 95.749 78.052C61.6418 97.4728 33.971 132.293 27.7375 173.556C22.2037 215.549 40.0443 255.874 65.2811 285.097C124.175 353.775 214.729 378.769 291.26 431.109C295.435 434.018 298.91 436.196 303.086 439.104C445.137 543.877 569.037 676.031 682.018 814.165C699.581 836.83 716.421 857.293 732.584 878.498Z" stroke="white" stroke-width="8" stroke-miterlimit="10"/>
<path d="M854.546 842.621C947.842 954.427 1037.76 1069.94 1166.23 1143.19C1250.98 1192.51 1353.26 1219.62 1446.32 1184.98C1511.32 1160.15 1571.67 1102.97 1599.49 1033.57C1633.27 950.124 1609.96 867.9 1564.15 799.847C1548.64 776.429 1530.42 755.977 1510.16 736.278C1334.68 563.348 1125.48 433.385 901.775 344.754C807.584 307.28 708.003 277.211 607.883 256.714C583.717 251.766 558.873 247.56 534.73 244.084C488.519 237.85 439.555 231.64 397.26 255.545C372.017 269.74 351.766 294.931 346.024 323.679C340.305 353.899 350.402 383.251 365.889 405.197C403.86 456.39 466.841 478.672 523.919 519.402C526.694 520.85 529.493 523.77 532.269 525.219C636.044 603.086 730.438 697.222 815.968 796.584C829.986 812.655 842.604 827.267 854.546 842.621Z" stroke="white" stroke-width="8" stroke-miterlimit="10"/>
<path d="M921.074 806.998C981.998 873.452 1039.56 945.085 1118.1 993.729C1170.91 1025.66 1232.47 1045.01 1291.44 1031.27C1334.64 1021.34 1378.9 990.796 1396.08 945.025C1416.59 892.603 1397.21 841.989 1366.93 798.826C1356.39 784.933 1345.17 771.781 1332.58 758.641C1222.79 648.445 1096.11 558.261 958.157 495.4C901.311 469.386 838.307 445.632 774.787 432.921C758.902 429.376 743.716 426.56 728.553 425.216C698.904 421.786 667.902 419.84 641.284 434.046C625.583 442.273 612.752 457.835 606.824 474.811C600.244 494 602.597 512.377 609.71 527.035C626.082 561.485 662.844 579.573 701.167 609.422C702.567 610.882 704.643 611.6 706.742 613.79C771.563 665.493 837.129 720.869 895.884 780.718C904.281 789.478 912.678 798.238 921.074 806.998Z" stroke="white" stroke-width="8" stroke-miterlimit="10"/>
</g>
</mask>
<g mask="url(#mask1_32_1999)">
<rect x="-64" y="27.9999" width="721" height="1024" fill="url(#paint0_linear_32_1999)"/>
</g>
</g>
<g clip-path="url(#clip0_32_1999)">
<path d="M300.37 944.277C322.281 963.255 322.1 962.706 326.49 982.427C330.88 1002.15 339.818 1077.49 351.14 1085.7C362.462 1093.91 373.78 1094.46 373.78 1094.46L367.937 1135.42H328.489L300.37 944.277Z" fill="#71579F"/>
<g style="mix-blend-mode:multiply" opacity="0.2">
<g style="mix-blend-mode:multiply" opacity="0.2">
<path d="M308.241 974.621C313.934 998.344 329.794 1112.99 341.762 1124.21C353.73 1135.42 316.931 1124.21 316.931 1124.21L290.309 1001.06L308.241 974.621Z" fill="#565554"/>
</g>
</g>
<path d="M373.251 853.788H398.031C398.426 853.787 398.818 853.864 399.183 854.015C399.548 854.167 399.88 854.389 400.161 854.668C400.44 854.946 400.66 855.277 400.811 855.641C400.964 856.005 401.042 856.395 401.042 856.789V914.63H370.25V856.799C370.251 856.405 370.327 856.014 370.475 855.648C370.627 855.283 370.849 854.951 371.128 854.671C371.406 854.385 371.739 854.158 372.106 854.002C372.469 853.855 372.859 853.782 373.251 853.788Z" fill="#F7AE67"/>
<path d="M418.311 840.104H443.071C443.469 840.103 443.863 840.181 444.23 840.335C444.599 840.49 444.934 840.718 445.214 841.004C445.494 841.288 445.715 841.624 445.863 841.993C446.012 842.362 446.086 842.758 446.082 843.156V914.636H415.29V843.166C415.285 842.767 415.359 842.371 415.508 842.001C415.657 841.631 415.877 841.295 416.158 841.011C416.444 840.722 416.786 840.495 417.162 840.341C417.525 840.186 417.916 840.105 418.311 840.104Z" fill="#F5993F"/>
<path d="M463.404 827.619H488.165C488.964 827.619 489.731 827.936 490.296 828.501C490.861 829.066 491.178 829.832 491.178 830.631V914.627H460.344V830.631C460.343 830.028 460.523 829.439 460.861 828.94C461.199 828.44 461.679 828.054 462.239 827.83C462.609 827.682 463.006 827.61 463.404 827.619Z" fill="#D67B32"/>
<path d="M359.674 841.076C358.989 841.076 358.322 840.859 357.768 840.456C357.214 840.054 356.801 839.486 356.59 838.835C356.378 838.184 356.378 837.482 356.59 836.831C356.802 836.18 357.215 835.612 357.769 835.21L399.092 805.313C400.123 804.529 401.351 804.049 402.64 803.924C403.929 803.799 405.227 804.036 406.389 804.607C406.476 804.65 406.563 804.697 406.647 804.747L427.409 817.363C427.463 817.383 427.522 817.39 427.579 817.383C427.66 817.378 427.738 817.35 427.804 817.303L483.727 775.512C484.417 775.022 485.272 774.821 486.108 774.952C486.944 775.083 487.697 775.535 488.204 776.213C488.711 776.89 488.934 777.739 488.824 778.577C488.714 779.416 488.28 780.179 487.615 780.703L431.655 822.534C430.626 823.283 429.412 823.736 428.143 823.843C426.875 823.95 425.601 823.706 424.462 823.139C424.381 823.099 424.304 823.056 424.227 823.009L403.465 810.396C403.403 810.384 403.34 810.384 403.278 810.396C403.184 810.404 403.095 810.439 403.02 810.496L402.94 810.557L361.58 840.477C361.024 840.873 360.357 841.083 359.674 841.076Z" fill="#F5993F"/>
<path d="M475.972 811.495H476.016H476.066C476.417 811.619 476.789 811.675 477.161 811.662C477.549 811.648 477.931 811.559 478.286 811.401L477.971 810.705L478.286 811.401C478.641 811.242 478.96 811.015 479.227 810.732C479.493 810.452 479.7 810.122 479.836 809.761L492.796 775.848C493.048 775.159 493.029 774.399 492.744 773.723C492.458 773.047 491.926 772.504 491.255 772.204C490.811 772 490.323 771.909 489.836 771.94L452.91 774.757C452.523 774.787 452.146 774.889 451.798 775.058C451.452 775.232 451.143 775.471 450.887 775.761C450.501 776.196 450.255 776.738 450.184 777.315C450.112 777.892 450.217 778.478 450.485 778.994C450.756 779.511 451.172 779.938 451.683 780.221C452.194 780.504 452.776 780.631 453.358 780.587L485.673 778.097L474.224 807.703C474.086 808.063 474.02 808.446 474.03 808.831C474.042 809.216 474.131 809.595 474.292 809.945C474.453 810.295 474.683 810.609 474.967 810.869C475.251 811.132 475.583 811.337 475.945 811.471L475.972 811.495Z" fill="#F5993F"/>
<path d="M477.06 812.241C476.659 812.241 476.26 812.174 475.881 812.043L475.74 812.003C475.309 811.841 474.912 811.598 474.572 811.287C474.234 810.975 473.962 810.6 473.771 810.182C473.58 809.765 473.474 809.313 473.46 808.854C473.444 808.397 473.523 807.941 473.691 807.516L484.815 778.736L453.388 781.159C452.928 781.19 452.467 781.134 452.028 780.995C451.588 780.853 451.181 780.625 450.829 780.325C450.478 780.029 450.189 779.666 449.979 779.258C449.769 778.85 449.641 778.404 449.604 777.946C449.567 777.485 449.624 777.022 449.771 776.584C449.915 776.15 450.143 775.747 450.441 775.399C450.746 775.056 451.114 774.774 451.526 774.57C451.938 774.366 452.384 774.244 452.842 774.208L489.768 771.394C490.354 771.355 490.941 771.462 491.476 771.705C492.005 771.942 492.467 772.309 492.818 772.771C493.169 773.233 493.398 773.775 493.485 774.349C493.571 774.911 493.516 775.486 493.324 776.022L493.304 776.082L480.345 809.999C480.182 810.429 479.935 810.822 479.618 811.157C479.431 811.355 479.221 811.53 478.992 811.679V811.722L478.483 811.95L477.974 812.177L477.957 812.137C477.695 812.207 477.425 812.248 477.154 812.257L477.06 812.241ZM476.125 810.956L476.246 810.989C476.533 811.088 476.836 811.133 477.14 811.123C477.267 811.121 477.394 811.106 477.518 811.079L477.462 810.952L478.483 810.494L478.54 810.624C478.64 810.548 478.733 810.463 478.818 810.37C479.034 810.145 479.203 809.879 479.313 809.587L492.273 775.664C492.409 775.296 492.45 774.9 492.391 774.513C492.333 774.126 492.177 773.759 491.938 773.448C491.698 773.135 491.384 772.885 491.024 772.722C490.662 772.557 490.266 772.483 489.868 772.505L452.939 775.322C452.623 775.346 452.315 775.43 452.032 775.57C451.75 775.71 451.499 775.903 451.292 776.139C451.085 776.373 450.928 776.646 450.829 776.942C450.728 777.237 450.689 777.549 450.716 777.859C450.74 778.17 450.827 778.473 450.97 778.75C451.113 779.027 451.31 779.272 451.549 779.472C451.789 779.675 452.067 779.829 452.366 779.924C452.666 780.025 452.983 780.064 453.297 780.038L486.496 777.481L474.729 807.91C474.559 808.347 474.525 808.824 474.632 809.28C474.739 809.736 474.982 810.149 475.328 810.464C475.558 810.678 475.827 810.844 476.122 810.952L476.125 810.956Z" fill="#F5993F"/>
<path d="M495.7 917.457H363.711C362.987 917.432 362.3 917.127 361.797 916.606C361.293 916.085 361.012 915.389 361.012 914.664C361.012 913.94 361.293 913.244 361.797 912.723C362.3 912.202 362.987 911.897 363.711 911.872H495.7C496.424 911.897 497.111 912.202 497.614 912.723C498.118 913.244 498.399 913.94 498.399 914.664C498.399 915.389 498.118 916.085 497.614 916.606C497.111 917.127 496.424 917.432 495.7 917.457Z" fill="#F5993F"/>
<path d="M171.958 882.375C171.958 882.375 172.986 885.421 173.297 885.491C173.608 885.561 176.445 884.052 176.445 883.677C176.445 883.302 175.212 881.385 175.212 881.385L173.572 881.11L171.958 882.375Z" fill="#142232"/>
<path d="M223.756 903.248C223.756 903.248 233.272 904.961 233.41 904.616C233.547 904.272 233.614 894.834 230.329 892.234C227.044 889.634 224.978 889.346 224.978 889.346C224.978 889.346 222.992 894.135 223.404 896.257C223.816 898.378 223.756 903.248 223.756 903.248Z" fill="#142232"/>
<path d="M328.49 1135.41H46.7642C47.1961 1131.39 48.0802 1125.37 49.3159 1117.89C57.4164 1068.82 80.7936 957.504 93.8535 944.915C108.923 930.411 168.62 881.696 199.207 896.113C199.207 896.113 218.258 893.911 233.528 900.49C261.295 912.451 293.992 937.455 300.358 944.279C310.233 954.86 328.49 1135.41 328.49 1135.41Z" fill="#71579F"/>
<path d="M239.196 946.105C232.077 960.16 223.953 987.889 219.841 1012.7C219.777 1005.88 204.396 961.703 195.984 938.037C192.81 929.122 190.626 923.115 190.626 923.115C190.626 923.115 194.752 917.971 197.304 915.11C198.258 914.049 198.978 913.306 199.213 913.256C200.036 913.175 200.864 913.148 201.691 913.176C203.757 913.176 206.329 913.256 206.329 913.256L215.176 926.384L224.743 914.672C224.743 914.672 225.292 915.11 226.19 915.92C230.921 920.133 245.18 934.299 239.196 946.105Z" fill="#D4E3E8"/>
<path d="M219.852 1012.7C220.947 974.475 228.98 922.565 231.907 917.09C234.834 911.615 244.505 903.453 244.505 903.453C244.505 903.453 267.483 915.4 270.524 918.917C272.259 920.925 272.065 922.307 272.065 922.307L268.438 919.995C268.141 919.802 267.804 919.68 267.452 919.64C267.101 919.599 266.745 919.64 266.412 919.761C255.954 923.663 236.719 962.298 219.852 1012.7Z" fill="#E0C3FC"/>
<g style="mix-blend-mode:multiply" opacity="0.2">
<g style="mix-blend-mode:multiply" opacity="0.2">
<path d="M234.909 932.204L233.456 938.562L224.414 918.744L215.175 926.401L224.743 914.688C224.743 914.688 225.292 915.127 226.189 915.937L234.909 932.204Z" fill="#565554"/>
</g>
</g>
<path d="M196.874 925.094C196.874 925.094 218.389 982.593 219.849 1012.7C210.7 984.019 167.244 913.395 149.419 905.665C149.141 905.546 148.839 905.492 148.536 905.508C148.234 905.524 147.939 905.608 147.674 905.755L145.367 907.007L146.707 904.477C147.157 903.626 147.849 902.928 148.696 902.469L161.129 895.776L196.874 925.094Z" fill="#E0C3FC"/>
<g style="mix-blend-mode:multiply" opacity="0.2">
<g style="mix-blend-mode:multiply" opacity="0.2">
<path d="M206.33 913.263L215.177 926.392L205.61 921.546L195.983 938.044L193.937 941.551L190.628 932.389L186.978 919.672L197.305 915.114L201.692 913.18C203.758 913.19 206.33 913.263 206.33 913.263Z" fill="#565554"/>
</g>
</g>
<g style="mix-blend-mode:multiply" opacity="0.2">
<g style="mix-blend-mode:multiply" opacity="0.2">
<path d="M215.195 926.386V926.392H215.187L215.195 926.386Z" fill="#565554"/>
</g>
</g>
<path d="M259.597 777.361C257.032 785.818 252.646 794.398 248.021 797.203C247.735 797.378 247.437 797.535 247.13 797.671C245.727 798.284 243.849 798.712 241.645 798.986C226.188 800.891 194.315 795.389 192.717 796.667C191.77 797.424 185.685 802.821 180.019 807.841C179.882 807.968 179.744 808.085 179.607 808.209C178.355 809.32 177.136 810.411 176.001 811.415L169.893 816.867C155.982 809.986 152.844 788.756 159.485 781.521C165.787 774.681 172.394 778.242 172.394 778.242C161.712 754.706 186.033 743.689 198.541 747.036C218.482 752.37 243.567 764.555 256.165 758.257C263.211 754.739 263.06 765.943 259.597 777.361Z" fill="#142232"/>
<path d="M169.899 816.871C155.981 809.987 152.847 788.74 159.491 781.522C165.79 774.682 172.397 778.246 172.397 778.246C161.718 754.707 186.036 743.69 198.543 747.037C218.481 752.391 243.57 764.555 256.171 758.261C268.772 751.966 258.361 792.729 247.129 797.672C235.898 802.615 194.555 795.209 192.72 796.668C190.885 798.127 169.899 816.871 169.899 816.871Z" fill="#183E66"/>
<path d="M248.024 797.205C248.463 798.727 246.145 799.109 244.434 796.987C244.282 795.756 244.064 794.534 243.781 793.326L243.543 790.214L239.19 779.301L239.91 777.728L240.58 776.353L249.832 771.946C249.832 771.946 255.887 772.22 259.587 777.364C257.035 785.82 252.648 794.4 248.024 797.205Z" fill="#183E66"/>
<path d="M229.438 912.349C229.923 916.067 226.94 909.855 223.316 913.259C220.815 915.601 215.192 926.397 215.192 926.397C212.644 924.034 209.238 915.688 203.053 910.521C190.63 900.184 173.29 891.547 173.29 891.547C173.29 891.547 175.899 841.986 175.999 829.42C176.1 816.854 176.853 801.503 176.853 801.503L244.775 832.157L229.438 863.634C229.105 866.117 228.826 868.51 228.601 870.812C228.232 874.46 227.984 877.867 227.84 881.052C227.09 897.303 228.818 907.573 229.438 912.349Z" fill="#FDBA9D"/>
<g style="mix-blend-mode:multiply" opacity="0.2">
<g style="mix-blend-mode:multiply" opacity="0.2">
<path d="M228.6 870.812C228.231 874.46 227.984 877.867 227.84 881.052C219.016 880.303 206.847 872.653 203.963 862.536L213.45 857.962L228.406 870.608L228.6 870.812Z" fill="#565554"/>
</g>
</g>
<path d="M203.964 862.533C181.508 851.035 176.856 826.954 176.856 826.954C176.291 821.793 176.006 816.605 176.002 811.413C176.002 810.335 176.039 809.261 176.09 808.207C176.163 805.953 176.42 803.709 176.856 801.497C178.772 792.462 191.926 777.142 191.926 777.142C191.926 777.142 231.916 776.044 233.557 776.318C235.197 776.593 239.859 774.679 239.859 774.679C240.103 775.227 240.348 775.783 240.602 776.352C240.937 777.108 241.272 777.888 241.577 778.694C244.07 784.746 246.225 790.93 248.033 797.22C248.472 798.743 248.9 800.272 249.295 801.828C259.867 842.194 258.002 890.195 203.964 862.533Z" fill="#FDBA9D"/>
<path d="M229.093 832.351C227.274 832.351 224.769 831.468 221.367 828.76C221.247 828.676 221.145 828.567 221.068 828.442C220.991 828.317 220.941 828.177 220.919 828.032C220.898 827.886 220.907 827.738 220.945 827.596C220.983 827.454 221.05 827.322 221.141 827.206C221.233 827.091 221.346 826.995 221.476 826.926C221.605 826.856 221.748 826.813 221.894 826.8C222.041 826.787 222.188 826.804 222.328 826.85C222.468 826.896 222.596 826.97 222.707 827.067C226.296 829.918 229.086 830.862 230.563 829.717C233.426 827.509 232.769 817.255 225.972 801.942C225.863 801.68 225.861 801.387 225.966 801.125C226.071 800.862 226.275 800.651 226.533 800.536C226.792 800.421 227.085 800.412 227.351 800.51C227.616 800.608 227.833 800.806 227.954 801.062C234.651 816.178 236.205 828.098 231.889 831.434C231.087 832.047 230.102 832.37 229.093 832.351Z" fill="#142232"/>
<path d="M180.003 808.204C180.412 798.352 182.729 791.602 187.534 788.774C197.53 782.888 232.313 791.645 249.84 771.941C254.863 766.303 239.011 774.712 232.722 774.679C218.811 774.598 196.971 776.452 192.203 776.874C191.591 776.928 191.021 777.202 190.599 777.647C187.655 780.746 175.764 793.265 175.405 793.744C174.994 794.292 174.856 796.618 175.405 798.673C175.955 800.728 174.401 808.204 174.401 808.204H180.003Z" fill="#183E66"/>
<path d="M181.778 827.232C160.554 837.629 157.952 794.523 180.82 807.25C203.689 819.977 181.778 827.232 181.778 827.232Z" fill="#FDBA9D"/>
<path d="M173.13 883.172C177.892 887.576 206.888 910.891 206.888 910.891L215.193 926.398L205.244 913.809L190.091 934.246L159.541 902.257C159.109 901.805 158.841 901.22 158.78 900.598C158.72 899.975 158.87 899.351 159.206 898.823L166.523 887.328C167.742 885.414 169.162 883.222 170.99 881.877L173.867 880.394L173.817 881.422L173.191 881.914C173.096 881.987 173.018 882.08 172.962 882.186C172.907 882.292 172.875 882.409 172.869 882.529C172.863 882.648 172.884 882.768 172.929 882.879C172.974 882.99 173.043 883.09 173.13 883.172Z" fill="#D4E3E8"/>
<path d="M215.193 926.399L222.409 911.986L229.107 899.648C229.806 898.366 230.085 896.898 229.905 895.45C229.724 894.002 229.094 892.647 228.102 891.576L227.694 891.138V887.989L235.982 891.636C238.676 892.824 240.868 894.919 242.177 897.556L246.342 905.952C246.496 906.262 246.585 906.6 246.605 906.945C246.624 907.29 246.574 907.635 246.456 907.96L235.908 937.265L224.814 914.687L215.193 926.399Z" fill="#D4E3E8"/>
<path d="M209.81 1012.71C209.08 1018.13 179.424 1065.66 161.807 1093.44C157.514 1100.21 153.934 1105.82 151.667 1109.33C151.667 1109.33 147.314 1108.32 142.87 1107.12C138.915 1106.05 134.876 1104.84 133.721 1104.07C132.629 1103.34 129.679 1098.89 126.732 1094.1C125.497 1092.1 124.261 1090.02 123.163 1088.14C121.006 1084.46 119.389 1081.52 119.339 1081.22C119.201 1080.39 116.325 1048.38 116.325 1048.38L146.463 991.857H207.118C207.118 991.857 210.718 1005.95 209.81 1012.71Z" fill="#FDBA9D"/>
<path d="M126.609 1029.08C129.841 1023.02 119.242 998.925 123.813 991.853C128.384 984.782 137.506 973.291 141.896 974.75C146.286 976.209 134.408 994.828 134.408 994.828L139.338 1014.45L128.2 1032.41L126.609 1029.08Z" fill="#FDBA9D"/>
<path d="M141.113 977.355C148.781 968.32 152.341 964.903 156.45 968.048C160.559 971.194 168.09 996.239 168.09 996.239L146.454 991.859L137.747 1008.17L132.748 994.325L141.113 977.355Z" fill="#FDBA9D"/>
<path d="M164.256 993.086H182.61C182.61 993.086 172.199 968.182 170.006 966.9C167.812 965.619 164.818 962.955 159.136 971.987C160.78 975.614 163.981 992.417 164.256 993.086Z" fill="#FDBA9D"/>
<path d="M172.375 970.525C176.098 967.225 183.198 963.46 187.624 971.465C192.051 979.47 197.051 993.087 197.051 993.087L179.933 993.421L172.375 970.525Z" fill="#FDBA9D"/>
<path d="M189.089 974.049C192.646 969.003 197.394 968.457 199.494 973.38C201.593 978.303 207.115 991.852 207.115 991.852L195.844 993.087L189.089 974.049Z" fill="#FDBA9D"/>
<path d="M552.175 1127.74H365.288L444.886 988.066H633.036L554.05 1126.65C553.863 1126.98 553.591 1127.26 553.261 1127.45C552.932 1127.64 552.557 1127.74 552.175 1127.74Z" fill="#D6E2E5"/>
<path d="M365.278 1127.75L356.514 1120.08L436.123 980.407L444.886 988.07L365.278 1127.75Z" fill="#AABCBF"/>
<path d="M444.886 988.07H633.036L624.272 980.407H436.122L444.886 988.07Z" fill="#C9CFD1"/>
<path d="M228.407 852.944H228.269C210.592 850.705 205.14 835.388 204.534 829.676C204.519 829.534 204.532 829.392 204.572 829.255C204.613 829.119 204.679 828.992 204.769 828.882C204.858 828.771 204.968 828.679 205.093 828.611C205.218 828.544 205.355 828.501 205.497 828.486C205.638 828.471 205.781 828.484 205.917 828.524C206.054 828.565 206.181 828.631 206.291 828.721C206.402 828.81 206.494 828.92 206.562 829.045C206.629 829.17 206.672 829.307 206.687 829.448C207.246 834.685 212.259 848.734 228.544 850.792C228.816 850.829 229.063 850.968 229.237 851.18C229.41 851.392 229.497 851.661 229.48 851.935C229.462 852.208 229.342 852.465 229.143 852.653C228.944 852.842 228.681 852.948 228.407 852.95V852.944Z" fill="#142232"/>
<path d="M177.128 822.931H177.091C172.815 822.847 170.768 819.638 170.641 816.492C170.507 813.27 172.202 810.656 174.583 810.415C174.728 810.394 174.875 810.402 175.017 810.439C175.159 810.477 175.291 810.542 175.407 810.632C175.523 810.722 175.619 810.834 175.69 810.962C175.761 811.091 175.805 811.232 175.82 811.377C175.835 811.523 175.82 811.67 175.777 811.81C175.733 811.95 175.662 812.079 175.567 812.191C175.472 812.302 175.355 812.393 175.224 812.459C175.093 812.524 174.95 812.562 174.804 812.57C173.622 812.691 172.724 814.411 172.794 816.402C172.878 818.47 174.06 820.706 177.121 820.752C177.409 820.755 177.684 820.872 177.885 821.077C178.087 821.282 178.199 821.559 178.196 821.847C178.193 822.134 178.076 822.409 177.871 822.61C177.666 822.812 177.389 822.924 177.101 822.921L177.128 822.931Z" fill="#142232"/>
<path d="M102.579 801.184V873.468C102.579 875.776 101.661 877.989 100.029 879.621C98.3958 881.252 96.1813 882.169 93.8721 882.169H13.1685C10.8594 882.169 8.64483 881.252 7.01203 879.621C5.37922 877.989 4.46191 875.776 4.46191 873.468V801.184C4.46723 798.88 5.38691 796.672 7.01914 795.045C8.65137 793.418 10.8629 792.504 13.1685 792.504H93.8721C96.1778 792.504 98.3893 793.418 100.022 795.045C101.654 796.672 102.573 798.88 102.579 801.184Z" fill="#F7AE67"/>
<path d="M102.578 801.184V816.244H4.48145V801.184C4.48677 798.88 5.4064 796.672 7.03863 795.045C8.67086 793.418 10.8824 792.504 13.1881 792.504H93.8917C96.1938 792.509 98.4002 793.425 100.028 795.052C101.656 796.679 102.573 798.884 102.578 801.184Z" fill="#F5993F"/>
<path d="M55.3364 829.149L59.107 840.738C59.1985 841.022 59.3771 841.269 59.6176 841.446C59.858 841.623 60.1481 841.719 60.4465 841.722H72.6391C72.9399 841.722 73.233 841.817 73.4765 841.994C73.7199 842.17 73.9012 842.42 73.9944 842.705C74.0877 842.991 74.0881 843.299 73.9956 843.585C73.9032 843.871 73.7225 844.121 73.4796 844.298L63.6143 851.46C63.3711 851.637 63.1899 851.886 63.0967 852.172C63.0036 852.458 63.003 852.766 63.0953 853.053L66.8626 864.642C66.9563 864.927 66.957 865.236 66.8645 865.522C66.772 865.808 66.5911 866.058 66.3477 866.235C66.1043 866.412 65.8111 866.507 65.5101 866.507C65.2091 866.507 64.9159 866.412 64.6725 866.235L54.8073 859.073C54.5644 858.895 54.2712 858.799 53.9701 858.799C53.669 858.799 53.3758 858.895 53.1329 859.073L43.2677 866.235C43.024 866.411 42.7309 866.505 42.4302 866.505C42.1295 866.504 41.8366 866.409 41.5933 866.232C41.3501 866.056 41.1689 865.807 41.0757 865.521C40.9825 865.235 40.982 864.928 41.0742 864.642L44.8415 853.053C44.9347 852.767 44.935 852.459 44.8423 852.173C44.7497 851.887 44.5689 851.637 44.3259 851.46L34.4606 844.298C34.2178 844.121 34.0373 843.872 33.9448 843.586C33.8522 843.3 33.8524 842.993 33.9452 842.707C34.0381 842.421 34.2188 842.172 34.4617 841.995C34.7046 841.818 34.9972 841.723 35.2977 841.722H47.4971C47.7953 841.719 48.0851 841.622 48.3255 841.445C48.5658 841.269 48.7446 841.021 48.8365 840.738L52.6038 829.149C52.69 828.854 52.8698 828.594 53.1162 828.409C53.3625 828.225 53.6621 828.125 53.9701 828.125C54.278 828.125 54.5777 828.225 54.824 828.409C55.0704 828.594 55.2502 828.854 55.3364 829.149Z" fill="white"/>
<path d="M35.0862 785.866H24.8761C24.0309 785.866 23.3457 786.551 23.3457 787.396V800.042C23.3457 800.887 24.0309 801.571 24.8761 801.571H35.0862C35.9314 801.571 36.6166 800.887 36.6166 800.042V787.396C36.6166 786.551 35.9314 785.866 35.0862 785.866Z" fill="#CC7133"/>
<path d="M71.9743 801.57H82.1845C83.0297 801.57 83.7148 800.885 83.7148 800.041V787.394C83.7148 786.55 83.0297 785.865 82.1845 785.865H71.9743C71.1291 785.865 70.444 786.55 70.444 787.394V800.041C70.444 800.885 71.1291 801.57 71.9743 801.57Z" fill="#CC7133"/>
<path d="M102.578 816.227H4.48145V818.513H102.578V816.227Z" fill="#CC7133"/>
</g>
<defs>
<linearGradient id="paint0_linear_32_1999" x1="-64.0001" y1="10.5001" x2="692.427" y2="1153.07" gradientUnits="userSpaceOnUse">
<stop stop-color="#180054"/>
<stop offset="1" stop-color="#F8F0FF"/>
</linearGradient>
<clipPath id="clip0_32_1999">
<rect width="682.414" height="591" fill="white" transform="translate(-25 544)"/>
</clipPath>
</defs>
</svg>
