<svg width="189" height="50" viewBox="0 0 189 50" fill="none" xmlns="http://www.w3.org/2000/svg">
<g clip-path="url(#clip0_3_11222)">
<path d="M31.25 20.3127H43.75V48.4377H31.25V20.3127ZM18.75 18.7502H31.25V48.4377H18.75V18.7502ZM1.5625 26.5627H14.0625V48.4377H1.5625V26.5627Z" fill="#D3A06C"/>
<path d="M14.0625 37.5002H26.5625V48.4377H14.0625V37.5002Z" fill="#D3A06C"/>
<path d="M48.4219 10.9299V14.0549H10.1406V10.5549L28.8906 1.55493L48.4219 10.9299Z" fill="#AAB2BD"/>
<path d="M46.8594 14.0549V48.4299H43.7344V20.3049H31.2344V18.7424H18.7344V37.4924H14.0469V26.5549H7.79688C8.28125 26.5549 8.73438 26.3049 8.99219 25.8909L12.4844 20.3049H10.1406V14.0549H46.8594Z" fill="#E6E9ED"/>
<path d="M12.4844 20.3049L8.99219 25.8909C8.86565 26.0938 8.68952 26.2612 8.4804 26.3773C8.27128 26.4933 8.03604 26.5542 7.79687 26.5542C7.5577 26.5542 7.32247 26.4933 7.11335 26.3773C6.90423 26.2612 6.7281 26.0938 6.60156 25.8909L3.10938 20.3049H5.45312V4.67993H10.1406V20.3049H12.4844Z" fill="#FFEAA7"/>
<path d="M35.9219 39.0549H39.0469V42.1799H35.9219V39.0549ZM35.9219 29.6799H39.0469V32.8049H35.9219V29.6799ZM35.9219 20.3049H39.0469V23.4299H35.9219V20.3049ZM23.4219 18.7424H26.5469V21.8674H23.4219V18.7424ZM23.4219 28.1174H26.5469V31.2424H23.4219V28.1174ZM18.7344 37.4924H21.8594V40.6174H18.7344V37.4924ZM6.23438 37.4924H9.35937V40.6174H6.23438V37.4924ZM9.35937 26.5549V29.6799H6.23438V26.5549H7.79687H9.35937Z" fill="#B27946"/>
<path d="M9.35547 4.67676H10.918V6.23926H9.35547V4.67676Z" fill="black"/>
<path d="M49.1992 10.4343L28.8867 0.684296L10.918 9.3093V7.80148H9.35547V21.0827H11.0711L8.325 25.4757C8.09531 25.8445 7.49062 25.8445 7.26016 25.4757L4.51484 21.0835H6.23047V4.67726H4.66797V19.521H1.69609L5.60234 25.771H0.761719V49.2085H47.6367V14.8335H49.1992V10.4343ZM7.01172 27.332H8.57422V28.8945H7.01172V27.332ZM2.32422 27.332H5.44922V30.457H10.1367V27.332H13.2617V36.707H2.32422V27.332ZM7.01172 38.2695H8.57422V39.832H7.01172V38.2695ZM2.32422 38.2695H5.44922V41.3945H10.1367V38.2695H13.2617V47.6445H2.32422V38.2695ZM14.8242 38.2695H17.9492V41.3945H22.6367V38.2695H25.7617V47.6445H14.8242V38.2695ZM24.1992 19.5202H25.7617V21.0827H24.1992V19.5202ZM27.3242 22.6452V19.5202H30.4492V27.3327H19.5117V19.5202H22.6367V22.6452H27.3242ZM36.6992 21.0827H38.2617V22.6452H36.6992V21.0827ZM39.8242 24.2077V21.0827H42.9492V28.8952H32.0117V21.0827H35.1367V24.2077H39.8242ZM35.1367 39.832V42.957H39.8242V39.832H42.9492V47.6445H32.0117V39.832H35.1367ZM36.6992 39.832H38.2617V41.3945H36.6992V39.832ZM32.0117 38.2695V30.457H35.1367V33.582H39.8242V30.457H42.9492V38.2695H32.0117ZM36.6992 30.457H38.2617V32.0195H36.6992V30.457ZM24.1992 28.8945H25.7617V30.457H24.1992V28.8945ZM22.6367 28.8945V32.0195H27.3242V28.8945H30.4492V47.6445H27.3242V36.707H19.5117V28.8945H22.6367ZM19.5117 38.2695H21.0742V39.832H19.5117V38.2695ZM46.0742 47.6445H44.5117V19.5195H32.0117V17.957H17.9492V36.707H14.8242V25.7695H9.98437L13.8906 19.5195H10.9187V14.832H46.075V47.6445H46.0742ZM47.6367 13.2702H10.918V11.0429L28.8867 2.41789L47.6367 11.4179V13.2702Z" fill="black"/>
</g>
<path d="M60.912 21.5V10.3H64.688V21.5H60.912ZM68.5058 21.5V10.3H71.6098L77.3058 17.116H75.8658V10.3H79.5458V21.5H76.4418L70.7458 14.684H72.1858V21.5H68.5058ZM86.8851 21.5L82.1491 10.3H86.2131L90.0691 19.756H87.6531L91.6211 10.3H95.3331L90.5971 21.5H86.8851ZM101.165 14.46H106.157V17.18H101.165V14.46ZM101.421 18.652H107.021V21.5H97.7089V10.3H106.813V13.148H101.421V18.652ZM110.475 21.5V10.3H113.579L119.275 17.116H117.835V10.3H121.515V21.5H118.411L112.715 14.684H114.155V21.5H110.475ZM127.766 21.5V13.228H124.486V10.3H134.822V13.228H131.542V21.5H127.766ZM143.534 21.756C142.617 21.756 141.769 21.612 140.99 21.324C140.222 21.036 139.556 20.6307 138.99 20.108C138.425 19.5747 137.982 18.9507 137.662 18.236C137.353 17.5213 137.198 16.7427 137.198 15.9C137.198 15.0467 137.353 14.268 137.662 13.564C137.982 12.8493 138.425 12.2307 138.99 11.708C139.556 11.1747 140.222 10.764 140.99 10.476C141.769 10.188 142.612 10.044 143.518 10.044C144.436 10.044 145.278 10.188 146.046 10.476C146.814 10.764 147.481 11.1747 148.046 11.708C148.612 12.2307 149.049 12.8493 149.358 13.564C149.678 14.268 149.838 15.0467 149.838 15.9C149.838 16.7427 149.678 17.5213 149.358 18.236C149.049 18.9507 148.612 19.5747 148.046 20.108C147.481 20.6307 146.814 21.036 146.046 21.324C145.278 21.612 144.441 21.756 143.534 21.756ZM143.518 18.7C143.87 18.7 144.196 18.636 144.494 18.508C144.804 18.38 145.07 18.1987 145.294 17.964C145.529 17.7187 145.71 17.4253 145.838 17.084C145.966 16.732 146.03 16.3373 146.03 15.9C146.03 15.4627 145.966 15.0733 145.838 14.732C145.71 14.38 145.529 14.0867 145.294 13.852C145.07 13.6067 144.804 13.42 144.494 13.292C144.196 13.164 143.87 13.1 143.518 13.1C143.166 13.1 142.836 13.164 142.526 13.292C142.228 13.42 141.961 13.6067 141.726 13.852C141.502 14.0867 141.326 14.38 141.198 14.732C141.07 15.0733 141.006 15.4627 141.006 15.9C141.006 16.3373 141.07 16.732 141.198 17.084C141.326 17.4253 141.502 17.7187 141.726 17.964C141.961 18.1987 142.228 18.38 142.526 18.508C142.836 18.636 143.166 18.7 143.518 18.7ZM153.209 21.5V10.3H158.601C159.646 10.3 160.548 10.4707 161.305 10.812C162.073 11.1533 162.665 11.644 163.081 12.284C163.497 12.9133 163.705 13.66 163.705 14.524C163.705 15.388 163.497 16.1347 163.081 16.764C162.665 17.3827 162.073 17.8573 161.305 18.188C160.548 18.5187 159.646 18.684 158.601 18.684H155.305L156.985 17.132V21.5H153.209ZM159.913 21.5L157.161 17.42H161.161L163.945 21.5H159.913ZM156.985 17.548L155.305 15.836H158.361C158.884 15.836 159.268 15.7187 159.513 15.484C159.769 15.2493 159.897 14.9293 159.897 14.524C159.897 14.1187 159.769 13.7987 159.513 13.564C159.268 13.3293 158.884 13.212 158.361 13.212H155.305L156.985 11.5V17.548ZM169.855 21.5V16.588L170.719 18.844L165.63 10.3H169.615L173.055 16.14H170.735L174.207 10.3H177.855L172.799 18.844L173.631 16.588V21.5H169.855ZM65.088 39.756C64.1493 39.756 63.2427 39.6493 62.368 39.436C61.4933 39.2227 60.7733 38.9453 60.208 38.604L61.424 35.852C61.9573 36.1613 62.5493 36.412 63.2 36.604C63.8613 36.7853 64.5013 36.876 65.12 36.876C65.4827 36.876 65.7653 36.8547 65.968 36.812C66.1813 36.7587 66.336 36.6893 66.432 36.604C66.528 36.508 66.576 36.396 66.576 36.268C66.576 36.0653 66.464 35.9053 66.24 35.788C66.016 35.6707 65.7173 35.5747 65.344 35.5C64.9813 35.4147 64.5813 35.3293 64.144 35.244C63.7067 35.148 63.264 35.0253 62.816 34.876C62.3787 34.7267 61.9733 34.5293 61.6 34.284C61.2373 34.0387 60.944 33.7187 60.72 33.324C60.496 32.9187 60.384 32.4173 60.384 31.82C60.384 31.1267 60.576 30.4973 60.96 29.932C61.3547 29.356 61.936 28.8973 62.704 28.556C63.4827 28.2147 64.448 28.044 65.6 28.044C66.3573 28.044 67.104 28.124 67.84 28.284C68.576 28.444 69.2373 28.6893 69.824 29.02L68.688 31.756C68.1333 31.4787 67.5947 31.2707 67.072 31.132C66.56 30.9933 66.0587 30.924 65.568 30.924C65.2053 30.924 64.9173 30.956 64.704 31.02C64.4907 31.084 64.336 31.1693 64.24 31.276C64.1547 31.3827 64.112 31.5 64.112 31.628C64.112 31.82 64.224 31.9747 64.448 32.092C64.672 32.1987 64.9653 32.2893 65.328 32.364C65.7013 32.4387 66.1067 32.5187 66.544 32.604C66.992 32.6893 67.4347 32.8067 67.872 32.956C68.3093 33.1053 68.7093 33.3027 69.072 33.548C69.4453 33.7933 69.744 34.1133 69.968 34.508C70.192 34.9027 70.304 35.3933 70.304 35.98C70.304 36.6627 70.1067 37.292 69.712 37.868C69.328 38.4333 68.752 38.892 67.984 39.244C67.216 39.5853 66.2507 39.756 65.088 39.756ZM76.0733 39.5V34.588L76.9373 36.844L71.8492 28.3H75.8333L79.2733 34.14H76.9533L80.4253 28.3H84.0733L79.0173 36.844L79.8493 34.588V39.5H76.0733ZM90.4943 39.756C89.5556 39.756 88.6489 39.6493 87.7743 39.436C86.8996 39.2227 86.1796 38.9453 85.6143 38.604L86.8303 35.852C87.3636 36.1613 87.9556 36.412 88.6063 36.604C89.2676 36.7853 89.9076 36.876 90.5263 36.876C90.8889 36.876 91.1716 36.8547 91.3743 36.812C91.5876 36.7587 91.7423 36.6893 91.8383 36.604C91.9343 36.508 91.9823 36.396 91.9823 36.268C91.9823 36.0653 91.8703 35.9053 91.6463 35.788C91.4223 35.6707 91.1236 35.5747 90.7503 35.5C90.3876 35.4147 89.9876 35.3293 89.5503 35.244C89.1129 35.148 88.6703 35.0253 88.2223 34.876C87.7849 34.7267 87.3796 34.5293 87.0063 34.284C86.6436 34.0387 86.3503 33.7187 86.1263 33.324C85.9023 32.9187 85.7903 32.4173 85.7903 31.82C85.7903 31.1267 85.9823 30.4973 86.3663 29.932C86.7609 29.356 87.3423 28.8973 88.1103 28.556C88.8889 28.2147 89.8543 28.044 91.0063 28.044C91.7636 28.044 92.5103 28.124 93.2463 28.284C93.9823 28.444 94.6436 28.6893 95.2303 29.02L94.0943 31.756C93.5396 31.4787 93.0009 31.2707 92.4783 31.132C91.9663 30.9933 91.4649 30.924 90.9743 30.924C90.6116 30.924 90.3236 30.956 90.1102 31.02C89.8969 31.084 89.7423 31.1693 89.6463 31.276C89.5609 31.3827 89.5182 31.5 89.5182 31.628C89.5182 31.82 89.6303 31.9747 89.8543 32.092C90.0783 32.1987 90.3716 32.2893 90.7343 32.364C91.1076 32.4387 91.5129 32.5187 91.9503 32.604C92.3983 32.6893 92.8409 32.8067 93.2783 32.956C93.7156 33.1053 94.1156 33.3027 94.4783 33.548C94.8516 33.7933 95.1503 34.1133 95.3743 34.508C95.5983 34.9027 95.7103 35.3933 95.7103 35.98C95.7103 36.6627 95.5129 37.292 95.1183 37.868C94.7343 38.4333 94.1583 38.892 93.3903 39.244C92.6223 39.5853 91.6569 39.756 90.4943 39.756ZM101.11 39.5V31.228H97.8296V28.3H108.166V31.228H104.886V39.5H101.11ZM114.602 32.46H119.594V35.18H114.602V32.46ZM114.858 36.652H120.458V39.5H111.146V28.3H120.25V31.148H114.858V36.652ZM123.912 39.5V28.3H127.016L131.496 35.612H129.864L134.216 28.3H137.32L137.352 39.5H133.912L133.88 33.484H134.424L131.448 38.492H129.784L126.68 33.484H127.352V39.5H123.912Z" fill="#353433"/>
<defs>
<clipPath id="clip0_3_11222">
<rect width="50" height="50" fill="white"/>
</clipPath>
</defs>
</svg>
