<svg width="721" height="1024" viewBox="0 0 721 1024" fill="none" xmlns="http://www.w3.org/2000/svg">
<rect width="721" height="1024" fill="#9D82C4"/>
<mask id="mask0_3_2105" style="mask-type:alpha" maskUnits="userSpaceOnUse" x="0" y="0" width="721" height="1024">
<rect width="721" height="1024" fill="#007AFF"/>
</mask>
<g mask="url(#mask0_3_2105)">
<mask id="mask1_3_2105" style="mask-type:alpha" maskUnits="userSpaceOnUse" x="-506" y="-297" width="2631" height="2103">
<g opacity="0.25">
<path d="M324.62 830.275C432.61 957.412 528.468 1100.84 624.141 1232.5C847.837 1539.69 1132.37 1820.62 1518.17 1800.44C1959.67 1777.59 2252.88 1340.93 2061.46 898.063C1915.75 560.776 1603.89 336.746 1292 198.081C1010.59 72.4049 723.207 -39.2384 432.582 -138.344C213.919 -213.035 -75.4399 -362.929 -302.22 -253.577C-518.759 -149.462 -569.72 154.894 -401.691 335.982C-295.262 451.358 -145.572 472.909 -14.4565 538.772C117.359 605.364 229.247 717.75 324.62 830.275Z" stroke="white" stroke-width="8" stroke-miterlimit="10"/>
<path d="M610.621 977.348C768.686 1181.33 923.952 1382.4 1150.28 1507.07C1300.25 1589.69 1483.34 1634.51 1644.54 1556.62C1754.51 1503.45 1845.69 1393.03 1894.09 1275.61C1973.61 1080.67 1894.23 890.736 1753.07 755.047C1313.49 331.193 738.309 81.4168 161.877 -29.263C119.772 -37.0032 77.6669 -44.7435 34.8852 -51.742C-44.4502 -63.5839 -130.69 -76.8392 -204.364 -35.0081C-247.336 -10.3613 -283.103 34.8298 -287.775 87.8541C-293.147 140.148 -267.54 192.917 -232.553 229.418C-147.162 319.95 -22.853 346.867 75.3004 417.422C256.306 548.359 409.033 719.273 548.789 896.92C569.174 923.976 589.559 951.033 610.621 977.348Z" stroke="white" stroke-width="8" stroke-miterlimit="10"/>
<path d="M732.579 878.469C858.272 1037.1 981.188 1194.28 1158.25 1293.61C1275.61 1359.59 1418.65 1395.91 1545.77 1338.91C1633.25 1299.91 1709.03 1216.85 1746.78 1123.07C1793.15 1007.88 1767.29 895.507 1705.25 801.835C1684.8 770.363 1659.56 741.14 1631.59 713.411C1389.76 478.489 1098.03 308.746 789.28 195.075C657.065 146.883 521.561 108.286 384.865 81.474C351.717 74.3942 317.916 69.5277 284.792 63.9196C222.019 54.8818 154.417 45.1486 95.7444 78.0226C61.6372 97.4434 33.9664 132.264 27.7329 173.527C22.1991 215.52 40.0397 255.844 65.2764 285.067C124.17 353.746 214.724 378.74 291.255 431.08C295.43 433.988 298.906 436.166 303.081 439.075C445.133 543.848 569.032 676.002 682.013 814.135C699.576 836.8 716.416 857.264 732.579 878.469Z" stroke="white" stroke-width="8" stroke-miterlimit="10"/>
<path d="M854.541 842.591C947.837 954.398 1037.75 1069.91 1166.23 1143.16C1250.97 1192.48 1353.26 1219.59 1446.32 1184.95C1511.31 1160.12 1571.67 1102.95 1599.48 1033.54C1633.27 950.095 1609.95 867.87 1564.15 799.817C1548.64 776.399 1530.42 755.948 1510.15 736.249C1334.68 563.319 1125.47 433.355 901.771 344.724C807.579 307.251 707.998 277.182 607.879 256.684C583.712 251.737 558.868 247.531 534.725 244.055C488.514 237.821 439.55 231.61 397.255 255.515C372.013 269.71 351.761 294.901 346.019 323.65C340.3 353.87 350.397 383.221 365.884 405.168C403.855 456.361 466.836 478.643 523.914 519.373C526.689 520.821 529.488 523.741 532.264 525.189C636.039 603.056 730.433 697.192 815.963 796.554C829.981 812.626 842.599 827.238 854.541 842.591Z" stroke="white" stroke-width="8" stroke-miterlimit="10"/>
<path d="M921.07 806.969C981.993 873.422 1039.56 945.056 1118.09 993.699C1170.9 1025.63 1232.46 1044.98 1291.44 1031.24C1334.64 1021.31 1378.9 990.766 1396.07 944.996C1416.58 892.574 1397.2 841.96 1366.93 798.797C1356.39 784.903 1345.17 771.752 1332.57 758.612C1222.78 648.416 1096.1 558.231 958.153 495.37C901.307 469.357 838.302 445.603 774.783 432.892C758.897 429.346 743.711 426.531 728.549 425.187C698.9 421.757 667.898 419.81 641.279 434.017C625.579 442.244 612.747 457.806 606.82 474.782C600.239 493.97 602.593 512.348 609.706 527.006C626.077 561.455 662.839 579.543 701.163 609.392C702.562 610.852 704.638 611.571 706.738 613.761C771.558 665.464 837.125 720.84 895.879 780.689C904.276 789.449 912.673 798.209 921.07 806.969Z" stroke="white" stroke-width="8" stroke-miterlimit="10"/>
</g>
</mask>
<g mask="url(#mask1_3_2105)">
<rect width="721" height="1024" fill="url(#paint0_linear_3_2105)"/>
</g>
<g clip-path="url(#clip0_3_2105)">
<path d="M132.25 133.313H144.75V161.438H132.25V133.313ZM119.75 131.75H132.25V161.438H119.75V131.75ZM102.562 139.563H115.062V161.438H102.562V139.563Z" fill="#D3A06C"/>
<path d="M115.062 150.5H127.562V161.438H115.062V150.5Z" fill="#D3A06C"/>
<path d="M149.422 123.93V127.055H111.141V123.555L129.891 114.555L149.422 123.93Z" fill="#AAB2BD"/>
<path d="M147.859 127.055V161.43H144.734V133.305H132.234V131.742H119.734V150.492H115.047V139.555H108.797C109.281 139.555 109.734 139.305 109.992 138.891L113.484 133.305H111.141V127.055H147.859Z" fill="#E6E9ED"/>
<path d="M113.484 133.305L109.992 138.891C109.866 139.094 109.69 139.261 109.48 139.377C109.271 139.493 109.036 139.554 108.797 139.554C108.558 139.554 108.322 139.493 108.113 139.377C107.904 139.261 107.728 139.094 107.602 138.891L104.109 133.305H106.453V117.68H111.141V133.305H113.484Z" fill="#FFEAA7"/>
<path d="M136.922 152.055H140.047V155.18H136.922V152.055ZM136.922 142.68H140.047V145.805H136.922V142.68ZM136.922 133.305H140.047V136.43H136.922V133.305ZM124.422 131.742H127.547V134.867H124.422V131.742ZM124.422 141.117H127.547V144.242H124.422V141.117ZM119.734 150.492H122.859V153.617H119.734V150.492ZM107.234 150.492H110.359V153.617H107.234V150.492ZM110.359 139.555V142.68H107.234V139.555H108.797H110.359Z" fill="#B27946"/>
<path d="M110.355 117.677H111.918V119.239H110.355V117.677Z" fill="black"/>
<path d="M150.199 123.434L129.887 113.684L111.918 122.309V120.801H110.355V134.083H112.071L109.325 138.476C109.095 138.844 108.491 138.844 108.26 138.476L105.515 134.084H107.23V117.677H105.668V132.521H102.696L106.602 138.771H101.762V162.209H148.637V127.834H150.199V123.434ZM108.012 140.332H109.574V141.894H108.012V140.332ZM103.324 140.332H106.449V143.457H111.137V140.332H114.262V149.707H103.324V140.332ZM108.012 151.269H109.574V152.832H108.012V151.269ZM103.324 151.269H106.449V154.394H111.137V151.269H114.262V160.644H103.324V151.269ZM115.824 151.269H118.949V154.394H123.637V151.269H126.762V160.644H115.824V151.269ZM125.199 132.52H126.762V134.083H125.199V132.52ZM128.324 135.645V132.52H131.449V140.333H120.512V132.52H123.637V135.645H128.324ZM137.699 134.083H139.262V135.645H137.699V134.083ZM140.824 137.208V134.083H143.949V141.895H133.012V134.083H136.137V137.208H140.824ZM136.137 152.832V155.957H140.824V152.832H143.949V160.644H133.012V152.832H136.137ZM137.699 152.832H139.262V154.394H137.699V152.832ZM133.012 151.269V143.457H136.137V146.582H140.824V143.457H143.949V151.269H133.012ZM137.699 143.457H139.262V145.019H137.699V143.457ZM125.199 141.894H126.762V143.457H125.199V141.894ZM123.637 141.894V145.019H128.324V141.894H131.449V160.644H128.324V149.707H120.512V141.894H123.637ZM120.512 151.269H122.074V152.832H120.512V151.269ZM147.074 160.644H145.512V132.519H133.012V130.957H118.949V149.707H115.824V138.769H110.984L114.891 132.519H111.919V127.832H147.075V160.644H147.074ZM148.637 126.27H111.918V124.043L129.887 115.418L148.637 124.418V126.27Z" fill="black"/>
</g>
<path d="M161.912 134.5V123.3H165.688V134.5H161.912ZM169.506 134.5V123.3H172.61L178.306 130.116H176.866V123.3H180.546V134.5H177.442L171.746 127.684H173.186V134.5H169.506ZM187.885 134.5L183.149 123.3H187.213L191.069 132.756H188.653L192.621 123.3H196.333L191.597 134.5H187.885ZM202.165 127.46H207.157V130.18H202.165V127.46ZM202.421 131.652H208.021V134.5H198.709V123.3H207.813V126.148H202.421V131.652ZM211.475 134.5V123.3H214.579L220.275 130.116H218.835V123.3H222.515V134.5H219.411L213.715 127.684H215.155V134.5H211.475ZM228.766 134.5V126.228H225.486V123.3H235.822V126.228H232.542V134.5H228.766ZM244.534 134.756C243.617 134.756 242.769 134.612 241.99 134.324C241.222 134.036 240.556 133.631 239.99 133.108C239.425 132.575 238.982 131.951 238.662 131.236C238.353 130.521 238.198 129.743 238.198 128.9C238.198 128.047 238.353 127.268 238.662 126.564C238.982 125.849 239.425 125.231 239.99 124.708C240.556 124.175 241.222 123.764 241.99 123.476C242.769 123.188 243.612 123.044 244.518 123.044C245.436 123.044 246.278 123.188 247.046 123.476C247.814 123.764 248.481 124.175 249.046 124.708C249.612 125.231 250.049 125.849 250.358 126.564C250.678 127.268 250.838 128.047 250.838 128.9C250.838 129.743 250.678 130.521 250.358 131.236C250.049 131.951 249.612 132.575 249.046 133.108C248.481 133.631 247.814 134.036 247.046 134.324C246.278 134.612 245.441 134.756 244.534 134.756ZM244.518 131.7C244.87 131.7 245.196 131.636 245.494 131.508C245.804 131.38 246.07 131.199 246.294 130.964C246.529 130.719 246.71 130.425 246.838 130.084C246.966 129.732 247.03 129.337 247.03 128.9C247.03 128.463 246.966 128.073 246.838 127.732C246.71 127.38 246.529 127.087 246.294 126.852C246.07 126.607 245.804 126.42 245.494 126.292C245.196 126.164 244.87 126.1 244.518 126.1C244.166 126.1 243.836 126.164 243.526 126.292C243.228 126.42 242.961 126.607 242.726 126.852C242.502 127.087 242.326 127.38 242.198 127.732C242.07 128.073 242.006 128.463 242.006 128.9C242.006 129.337 242.07 129.732 242.198 130.084C242.326 130.425 242.502 130.719 242.726 130.964C242.961 131.199 243.228 131.38 243.526 131.508C243.836 131.636 244.166 131.7 244.518 131.7ZM254.209 134.5V123.3H259.601C260.646 123.3 261.548 123.471 262.305 123.812C263.073 124.153 263.665 124.644 264.081 125.284C264.497 125.913 264.705 126.66 264.705 127.524C264.705 128.388 264.497 129.135 264.081 129.764C263.665 130.383 263.073 130.857 262.305 131.188C261.548 131.519 260.646 131.684 259.601 131.684H256.305L257.985 130.132V134.5H254.209ZM260.913 134.5L258.161 130.42H262.161L264.945 134.5H260.913ZM257.985 130.548L256.305 128.836H259.361C259.884 128.836 260.268 128.719 260.513 128.484C260.769 128.249 260.897 127.929 260.897 127.524C260.897 127.119 260.769 126.799 260.513 126.564C260.268 126.329 259.884 126.212 259.361 126.212H256.305L257.985 124.5V130.548ZM270.855 134.5V129.588L271.719 131.844L266.63 123.3H270.615L274.055 129.14H271.735L275.207 123.3H278.855L273.799 131.844L274.631 129.588V134.5H270.855ZM166.088 152.756C165.149 152.756 164.243 152.649 163.368 152.436C162.493 152.223 161.773 151.945 161.208 151.604L162.424 148.852C162.957 149.161 163.549 149.412 164.2 149.604C164.861 149.785 165.501 149.876 166.12 149.876C166.483 149.876 166.765 149.855 166.968 149.812C167.181 149.759 167.336 149.689 167.432 149.604C167.528 149.508 167.576 149.396 167.576 149.268C167.576 149.065 167.464 148.905 167.24 148.788C167.016 148.671 166.717 148.575 166.344 148.5C165.981 148.415 165.581 148.329 165.144 148.244C164.707 148.148 164.264 148.025 163.816 147.876C163.379 147.727 162.973 147.529 162.6 147.284C162.237 147.039 161.944 146.719 161.72 146.324C161.496 145.919 161.384 145.417 161.384 144.82C161.384 144.127 161.576 143.497 161.96 142.932C162.355 142.356 162.936 141.897 163.704 141.556C164.483 141.215 165.448 141.044 166.6 141.044C167.357 141.044 168.104 141.124 168.84 141.284C169.576 141.444 170.237 141.689 170.824 142.02L169.688 144.756C169.133 144.479 168.595 144.271 168.072 144.132C167.56 143.993 167.059 143.924 166.568 143.924C166.205 143.924 165.917 143.956 165.704 144.02C165.491 144.084 165.336 144.169 165.24 144.276C165.155 144.383 165.112 144.5 165.112 144.628C165.112 144.82 165.224 144.975 165.448 145.092C165.672 145.199 165.965 145.289 166.328 145.364C166.701 145.439 167.107 145.519 167.544 145.604C167.992 145.689 168.435 145.807 168.872 145.956C169.309 146.105 169.709 146.303 170.072 146.548C170.445 146.793 170.744 147.113 170.968 147.508C171.192 147.903 171.304 148.393 171.304 148.98C171.304 149.663 171.107 150.292 170.712 150.868C170.328 151.433 169.752 151.892 168.984 152.244C168.216 152.585 167.251 152.756 166.088 152.756ZM177.073 152.5V147.588L177.937 149.844L172.849 141.3H176.833L180.273 147.14H177.953L181.425 141.3H185.073L180.017 149.844L180.849 147.588V152.5H177.073ZM191.494 152.756C190.556 152.756 189.649 152.649 188.774 152.436C187.9 152.223 187.18 151.945 186.614 151.604L187.83 148.852C188.364 149.161 188.956 149.412 189.606 149.604C190.268 149.785 190.908 149.876 191.526 149.876C191.889 149.876 192.172 149.855 192.374 149.812C192.588 149.759 192.742 149.689 192.838 149.604C192.934 149.508 192.982 149.396 192.982 149.268C192.982 149.065 192.87 148.905 192.646 148.788C192.422 148.671 192.124 148.575 191.75 148.5C191.388 148.415 190.988 148.329 190.55 148.244C190.113 148.148 189.67 148.025 189.222 147.876C188.785 147.727 188.38 147.529 188.006 147.284C187.644 147.039 187.35 146.719 187.126 146.324C186.902 145.919 186.79 145.417 186.79 144.82C186.79 144.127 186.982 143.497 187.366 142.932C187.761 142.356 188.342 141.897 189.11 141.556C189.889 141.215 190.854 141.044 192.006 141.044C192.764 141.044 193.51 141.124 194.246 141.284C194.982 141.444 195.644 141.689 196.23 142.02L195.094 144.756C194.54 144.479 194.001 144.271 193.478 144.132C192.966 143.993 192.465 143.924 191.974 143.924C191.612 143.924 191.324 143.956 191.11 144.02C190.897 144.084 190.742 144.169 190.646 144.276C190.561 144.383 190.518 144.5 190.518 144.628C190.518 144.82 190.63 144.975 190.854 145.092C191.078 145.199 191.372 145.289 191.734 145.364C192.108 145.439 192.513 145.519 192.95 145.604C193.398 145.689 193.841 145.807 194.278 145.956C194.716 146.105 195.116 146.303 195.478 146.548C195.852 146.793 196.15 147.113 196.374 147.508C196.598 147.903 196.71 148.393 196.71 148.98C196.71 149.663 196.513 150.292 196.118 150.868C195.734 151.433 195.158 151.892 194.39 152.244C193.622 152.585 192.657 152.756 191.494 152.756ZM202.11 152.5V144.228H198.83V141.3H209.166V144.228H205.886V152.5H202.11ZM215.602 145.46H220.594V148.18H215.602V145.46ZM215.858 149.652H221.458V152.5H212.146V141.3H221.25V144.148H215.858V149.652ZM224.912 152.5V141.3H228.016L232.496 148.612H230.864L235.216 141.3H238.32L238.352 152.5H234.912L234.88 146.484H235.424L232.448 151.492H230.784L227.68 146.484H228.352V152.5H224.912Z" fill="white"/>
<path d="M101.207 176.583V172.273H121.516V176.583H113.945V197H108.778V176.583H101.207ZM129.907 186.278V197H124.763V172.273H129.762V181.727H129.979C130.398 180.632 131.074 179.775 132.008 179.155C132.942 178.527 134.113 178.213 135.521 178.213C136.809 178.213 137.932 178.495 138.89 179.058C139.856 179.614 140.604 180.415 141.136 181.461C141.675 182.499 141.941 183.743 141.933 185.192V197H136.789V186.109C136.797 184.966 136.507 184.077 135.92 183.441C135.34 182.805 134.527 182.487 133.481 182.487C132.781 182.487 132.161 182.636 131.621 182.934C131.09 183.232 130.672 183.666 130.366 184.238C130.068 184.801 129.915 185.482 129.907 186.278ZM145.98 197V178.455H151.124V197H145.98ZM148.564 176.064C147.799 176.064 147.143 175.81 146.596 175.303C146.057 174.788 145.787 174.172 145.787 173.456C145.787 172.748 146.057 172.14 146.596 171.633C147.143 171.118 147.799 170.86 148.564 170.86C149.329 170.86 149.981 171.118 150.52 171.633C151.067 172.14 151.341 172.748 151.341 173.456C151.341 174.172 151.067 174.788 150.52 175.303C149.981 175.81 149.329 176.064 148.564 176.064ZM170.674 183.743L165.966 184.033C165.885 183.63 165.712 183.268 165.446 182.946C165.181 182.616 164.831 182.354 164.396 182.161C163.969 181.96 163.458 181.859 162.863 181.859C162.066 181.859 161.394 182.028 160.846 182.366C160.299 182.696 160.025 183.139 160.025 183.695C160.025 184.137 160.202 184.512 160.556 184.817C160.911 185.123 161.518 185.369 162.38 185.554L165.736 186.23C167.539 186.6 168.883 187.196 169.769 188.017C170.654 188.838 171.097 189.917 171.097 191.253C171.097 192.468 170.739 193.535 170.022 194.452C169.314 195.37 168.34 196.086 167.1 196.602C165.869 197.109 164.448 197.362 162.838 197.362C160.383 197.362 158.427 196.851 156.971 195.829C155.522 194.799 154.672 193.398 154.423 191.627L159.482 191.362C159.635 192.11 160.005 192.682 160.593 193.076C161.18 193.462 161.933 193.656 162.85 193.656C163.752 193.656 164.476 193.482 165.024 193.136C165.579 192.782 165.861 192.327 165.869 191.772C165.861 191.305 165.664 190.923 165.277 190.625C164.891 190.319 164.295 190.086 163.49 189.925L160.279 189.285C158.468 188.923 157.119 188.295 156.234 187.401C155.357 186.508 154.918 185.369 154.918 183.984C154.918 182.793 155.24 181.767 155.884 180.906C156.536 180.044 157.449 179.38 158.625 178.913C159.808 178.446 161.192 178.213 162.778 178.213C165.12 178.213 166.964 178.708 168.308 179.698C169.66 180.688 170.449 182.036 170.674 183.743ZM186.564 197H180.961L189.498 172.273H196.235L204.759 197H199.157L192.963 177.923H192.77L186.564 197ZM186.213 187.281H199.446V191.362H186.213V187.281ZM207.638 203.955V178.455H212.71V181.57H212.939C213.164 181.071 213.49 180.563 213.917 180.048C214.352 179.525 214.915 179.09 215.607 178.744C216.308 178.39 217.177 178.213 218.215 178.213C219.567 178.213 220.815 178.567 221.958 179.276C223.101 179.976 224.015 181.034 224.699 182.451C225.383 183.86 225.725 185.626 225.725 187.751C225.725 189.82 225.391 191.567 224.723 192.991C224.063 194.408 223.161 195.483 222.018 196.215C220.884 196.94 219.612 197.302 218.203 197.302C217.205 197.302 216.356 197.137 215.656 196.807C214.963 196.477 214.396 196.062 213.953 195.563C213.51 195.056 213.172 194.545 212.939 194.03H212.782V203.955H207.638ZM212.673 187.727C212.673 188.83 212.826 189.792 213.132 190.613C213.438 191.434 213.881 192.074 214.46 192.533C215.04 192.983 215.744 193.209 216.573 193.209C217.41 193.209 218.119 192.979 218.698 192.521C219.278 192.054 219.716 191.41 220.014 190.589C220.32 189.76 220.473 188.806 220.473 187.727C220.473 186.657 220.324 185.715 220.026 184.902C219.728 184.089 219.29 183.453 218.71 182.994C218.131 182.536 217.418 182.306 216.573 182.306C215.736 182.306 215.028 182.527 214.448 182.97C213.877 183.413 213.438 184.041 213.132 184.854C212.826 185.667 212.673 186.625 212.673 187.727ZM229.154 203.955V178.455H234.225V181.57H234.455C234.68 181.071 235.006 180.563 235.433 180.048C235.867 179.525 236.431 179.09 237.123 178.744C237.823 178.39 238.692 178.213 239.731 178.213C241.083 178.213 242.331 178.567 243.474 179.276C244.617 179.976 245.53 181.034 246.214 182.451C246.899 183.86 247.241 185.626 247.241 187.751C247.241 189.82 246.907 191.567 246.239 192.991C245.579 194.408 244.677 195.483 243.534 196.215C242.399 196.94 241.127 197.302 239.719 197.302C238.721 197.302 237.871 197.137 237.171 196.807C236.479 196.477 235.911 196.062 235.469 195.563C235.026 195.056 234.688 194.545 234.455 194.03H234.298V203.955H229.154ZM234.189 187.727C234.189 188.83 234.342 189.792 234.648 190.613C234.954 191.434 235.396 192.074 235.976 192.533C236.555 192.983 237.26 193.209 238.089 193.209C238.926 193.209 239.634 192.979 240.214 192.521C240.793 192.054 241.232 191.41 241.53 190.589C241.836 189.76 241.989 188.806 241.989 187.727C241.989 186.657 241.84 185.715 241.542 184.902C241.244 184.089 240.805 183.453 240.226 182.994C239.646 182.536 238.934 182.306 238.089 182.306C237.252 182.306 236.543 182.527 235.964 182.97C235.392 183.413 234.954 184.041 234.648 184.854C234.342 185.667 234.189 186.625 234.189 187.727ZM255.813 172.273V197H250.67V172.273H255.813ZM259.933 197V178.455H265.077V197H259.933ZM262.517 176.064C261.753 176.064 261.097 175.81 260.549 175.303C260.01 174.788 259.74 174.172 259.74 173.456C259.74 172.748 260.01 172.14 260.549 171.633C261.097 171.118 261.753 170.86 262.517 170.86C263.282 170.86 263.934 171.118 264.473 171.633C265.021 172.14 265.294 172.748 265.294 173.456C265.294 174.172 265.021 174.788 264.473 175.303C263.934 175.81 263.282 176.064 262.517 176.064ZM277.576 197.362C275.677 197.362 274.043 196.96 272.674 196.155C271.314 195.342 270.268 194.215 269.535 192.774C268.811 191.333 268.449 189.675 268.449 187.8C268.449 185.9 268.815 184.234 269.547 182.801C270.288 181.36 271.338 180.237 272.699 179.433C274.059 178.62 275.677 178.213 277.552 178.213C279.17 178.213 280.587 178.507 281.802 179.094C283.018 179.682 283.98 180.507 284.688 181.57C285.396 182.632 285.787 183.88 285.859 185.312H281.005C280.868 184.387 280.506 183.642 279.919 183.079C279.339 182.507 278.578 182.222 277.637 182.222C276.84 182.222 276.144 182.439 275.548 182.874C274.96 183.3 274.502 183.924 274.172 184.745C273.842 185.566 273.676 186.56 273.676 187.727C273.676 188.911 273.837 189.917 274.159 190.746C274.489 191.575 274.952 192.207 275.548 192.641C276.144 193.076 276.84 193.293 277.637 193.293C278.224 193.293 278.752 193.173 279.218 192.931C279.693 192.69 280.084 192.339 280.39 191.881C280.703 191.414 280.909 190.854 281.005 190.202H285.859C285.779 191.619 285.392 192.867 284.7 193.945C284.016 195.016 283.07 195.853 281.863 196.457C280.655 197.06 279.226 197.362 277.576 197.362ZM294.441 197.35C293.257 197.35 292.203 197.145 291.277 196.734C290.352 196.316 289.619 195.7 289.08 194.887C288.548 194.066 288.283 193.044 288.283 191.82C288.283 190.79 288.472 189.925 288.85 189.224C289.229 188.524 289.744 187.961 290.396 187.534C291.048 187.107 291.788 186.786 292.617 186.568C293.454 186.351 294.332 186.198 295.249 186.109C296.328 185.997 297.197 185.892 297.857 185.795C298.517 185.691 298.996 185.538 299.294 185.337C299.592 185.135 299.741 184.838 299.741 184.443V184.371C299.741 183.606 299.499 183.014 299.017 182.596C298.542 182.177 297.865 181.968 296.988 181.968C296.062 181.968 295.326 182.173 294.779 182.584C294.231 182.986 293.869 183.493 293.692 184.105L288.935 183.719C289.176 182.592 289.651 181.618 290.36 180.797C291.068 179.968 291.981 179.332 293.1 178.889C294.227 178.438 295.531 178.213 297.012 178.213C298.043 178.213 299.029 178.334 299.97 178.575C300.92 178.817 301.761 179.191 302.494 179.698C303.234 180.205 303.818 180.857 304.244 181.654C304.671 182.443 304.884 183.389 304.884 184.491V197H300.007V194.428H299.862C299.564 195.008 299.165 195.519 298.666 195.962C298.167 196.396 297.568 196.738 296.867 196.988C296.167 197.229 295.358 197.35 294.441 197.35ZM295.914 193.8C296.67 193.8 297.338 193.652 297.918 193.354C298.497 193.048 298.952 192.637 299.282 192.122C299.612 191.607 299.777 191.023 299.777 190.371V188.403C299.616 188.508 299.395 188.605 299.113 188.693C298.839 188.774 298.53 188.85 298.183 188.923C297.837 188.987 297.491 189.047 297.145 189.104C296.799 189.152 296.485 189.196 296.203 189.237C295.6 189.325 295.072 189.466 294.622 189.659C294.171 189.852 293.821 190.114 293.571 190.444C293.322 190.766 293.197 191.168 293.197 191.651C293.197 192.352 293.45 192.887 293.958 193.257C294.473 193.619 295.125 193.8 295.914 193.8ZM318.739 178.455V182.318H307.571V178.455H318.739ZM310.106 174.011H315.25V191.301C315.25 191.776 315.322 192.146 315.467 192.412C315.612 192.67 315.813 192.851 316.071 192.955C316.336 193.06 316.642 193.112 316.988 193.112C317.23 193.112 317.471 193.092 317.713 193.052C317.954 193.004 318.14 192.967 318.268 192.943L319.077 196.771C318.82 196.851 318.457 196.944 317.991 197.048C317.524 197.161 316.956 197.229 316.288 197.254C315.049 197.302 313.962 197.137 313.028 196.759C312.103 196.38 311.382 195.793 310.867 194.996C310.352 194.199 310.098 193.193 310.106 191.977V174.011ZM322.09 197V178.455H327.233V197H322.09ZM324.673 176.064C323.909 176.064 323.253 175.81 322.705 175.303C322.166 174.788 321.896 174.172 321.896 173.456C321.896 172.748 322.166 172.14 322.705 171.633C323.253 171.118 323.909 170.86 324.673 170.86C325.438 170.86 326.09 171.118 326.629 171.633C327.177 172.14 327.45 172.748 327.45 173.456C327.45 174.172 327.177 174.788 326.629 175.303C326.09 175.81 325.438 176.064 324.673 176.064ZM339.733 197.362C337.857 197.362 336.235 196.964 334.867 196.167C333.507 195.362 332.456 194.243 331.716 192.81C330.975 191.37 330.605 189.699 330.605 187.8C330.605 185.884 330.975 184.21 331.716 182.777C332.456 181.336 333.507 180.217 334.867 179.42C336.235 178.616 337.857 178.213 339.733 178.213C341.608 178.213 343.226 178.616 344.586 179.42C345.955 180.217 347.009 181.336 347.75 182.777C348.49 184.21 348.86 185.884 348.86 187.8C348.86 189.699 348.49 191.37 347.75 192.81C347.009 194.243 345.955 195.362 344.586 196.167C343.226 196.964 341.608 197.362 339.733 197.362ZM339.757 193.378C340.61 193.378 341.322 193.136 341.894 192.653C342.465 192.162 342.896 191.494 343.186 190.649C343.484 189.804 343.632 188.842 343.632 187.763C343.632 186.685 343.484 185.723 343.186 184.878C342.896 184.033 342.465 183.365 341.894 182.874C341.322 182.383 340.61 182.137 339.757 182.137C338.895 182.137 338.171 182.383 337.583 182.874C337.004 183.365 336.565 184.033 336.267 184.878C335.978 185.723 335.833 186.685 335.833 187.763C335.833 188.842 335.978 189.804 336.267 190.649C336.565 191.494 337.004 192.162 337.583 192.653C338.171 193.136 338.895 193.378 339.757 193.378ZM357.348 186.278V197H352.205V178.455H357.107V181.727H357.324C357.735 180.648 358.423 179.795 359.389 179.167C360.355 178.531 361.526 178.213 362.902 178.213C364.19 178.213 365.313 178.495 366.271 179.058C367.229 179.622 367.973 180.427 368.505 181.473C369.036 182.511 369.301 183.751 369.301 185.192V197H364.158V186.109C364.166 184.974 363.876 184.089 363.289 183.453C362.701 182.809 361.892 182.487 360.862 182.487C360.17 182.487 359.558 182.636 359.027 182.934C358.503 183.232 358.093 183.666 357.795 184.238C357.505 184.801 357.356 185.482 357.348 186.278ZM269.149 238.362C267.241 238.362 265.599 237.976 264.223 237.203C262.854 236.422 261.8 235.32 261.059 233.895C260.319 232.462 259.949 230.768 259.949 228.812C259.949 226.904 260.319 225.23 261.059 223.789C261.8 222.348 262.842 221.225 264.186 220.42C265.539 219.616 267.124 219.213 268.944 219.213C270.167 219.213 271.306 219.41 272.36 219.805C273.423 220.191 274.349 220.775 275.137 221.555C275.934 222.336 276.554 223.318 276.997 224.501C277.44 225.677 277.661 227.053 277.661 228.631V230.043H262.001V226.856H272.819C272.819 226.115 272.658 225.459 272.336 224.888C272.014 224.316 271.568 223.87 270.996 223.548C270.433 223.218 269.777 223.053 269.028 223.053C268.247 223.053 267.555 223.234 266.951 223.596C266.356 223.95 265.889 224.429 265.551 225.033C265.213 225.628 265.04 226.292 265.032 227.025V230.055C265.032 230.973 265.201 231.766 265.539 232.434C265.885 233.102 266.372 233.617 267 233.979C267.627 234.342 268.372 234.523 269.233 234.523C269.805 234.523 270.328 234.442 270.803 234.281C271.278 234.12 271.684 233.879 272.022 233.557C272.36 233.235 272.618 232.84 272.795 232.374L277.552 232.688C277.311 233.83 276.816 234.829 276.067 235.682C275.327 236.527 274.369 237.187 273.194 237.662C272.026 238.129 270.678 238.362 269.149 238.362ZM286.306 238.35C285.123 238.35 284.068 238.145 283.142 237.734C282.217 237.316 281.484 236.7 280.945 235.887C280.414 235.066 280.148 234.044 280.148 232.82C280.148 231.79 280.337 230.925 280.716 230.224C281.094 229.524 281.609 228.961 282.261 228.534C282.913 228.107 283.654 227.786 284.483 227.568C285.32 227.351 286.197 227.198 287.115 227.109C288.193 226.997 289.063 226.892 289.723 226.795C290.383 226.691 290.862 226.538 291.159 226.337C291.457 226.135 291.606 225.838 291.606 225.443V225.371C291.606 224.606 291.365 224.014 290.882 223.596C290.407 223.177 289.731 222.968 288.853 222.968C287.928 222.968 287.191 223.173 286.644 223.584C286.096 223.986 285.734 224.493 285.557 225.105L280.8 224.719C281.042 223.592 281.516 222.618 282.225 221.797C282.933 220.968 283.847 220.332 284.966 219.889C286.092 219.438 287.396 219.213 288.877 219.213C289.908 219.213 290.894 219.334 291.836 219.575C292.785 219.817 293.627 220.191 294.359 220.698C295.1 221.205 295.683 221.857 296.11 222.654C296.536 223.443 296.75 224.389 296.75 225.491V238H291.872V235.428H291.727C291.429 236.008 291.031 236.519 290.532 236.962C290.033 237.396 289.433 237.738 288.733 237.988C288.032 238.229 287.223 238.35 286.306 238.35ZM287.779 234.8C288.535 234.8 289.203 234.652 289.783 234.354C290.363 234.048 290.817 233.637 291.147 233.122C291.477 232.607 291.642 232.023 291.642 231.371V229.403C291.481 229.508 291.26 229.605 290.978 229.693C290.705 229.774 290.395 229.85 290.049 229.923C289.703 229.987 289.356 230.047 289.01 230.104C288.664 230.152 288.35 230.196 288.069 230.237C287.465 230.325 286.938 230.466 286.487 230.659C286.036 230.852 285.686 231.114 285.436 231.444C285.187 231.766 285.062 232.168 285.062 232.651C285.062 233.352 285.316 233.887 285.823 234.257C286.338 234.619 286.99 234.8 287.779 234.8ZM316.17 224.743L311.462 225.033C311.381 224.63 311.208 224.268 310.942 223.946C310.677 223.616 310.327 223.354 309.892 223.161C309.465 222.96 308.954 222.859 308.359 222.859C307.562 222.859 306.89 223.028 306.342 223.366C305.795 223.696 305.521 224.139 305.521 224.695C305.521 225.137 305.698 225.512 306.053 225.817C306.407 226.123 307.014 226.369 307.876 226.554L311.232 227.23C313.035 227.6 314.379 228.196 315.265 229.017C316.15 229.838 316.593 230.917 316.593 232.253C316.593 233.468 316.235 234.535 315.518 235.452C314.81 236.37 313.836 237.086 312.597 237.602C311.365 238.109 309.944 238.362 308.335 238.362C305.879 238.362 303.924 237.851 302.467 236.829C301.018 235.799 300.169 234.398 299.919 232.627L304.978 232.362C305.131 233.11 305.501 233.682 306.089 234.076C306.676 234.462 307.429 234.656 308.347 234.656C309.248 234.656 309.973 234.482 310.52 234.136C311.075 233.782 311.357 233.327 311.365 232.772C311.357 232.305 311.16 231.923 310.773 231.625C310.387 231.319 309.791 231.086 308.987 230.925L305.775 230.285C303.964 229.923 302.616 229.295 301.73 228.401C300.853 227.508 300.414 226.369 300.414 224.984C300.414 223.793 300.736 222.767 301.38 221.906C302.032 221.044 302.946 220.38 304.121 219.913C305.304 219.446 306.688 219.213 308.274 219.213C310.616 219.213 312.46 219.708 313.804 220.698C315.156 221.688 315.945 223.036 316.17 224.743ZM319.832 238V219.455H324.975V238H319.832ZM322.416 217.064C321.651 217.064 320.995 216.81 320.448 216.303C319.908 215.788 319.639 215.172 319.639 214.456C319.639 213.748 319.908 213.14 320.448 212.633C320.995 212.118 321.651 211.86 322.416 211.86C323.18 211.86 323.832 212.118 324.372 212.633C324.919 213.14 325.193 213.748 325.193 214.456C325.193 215.172 324.919 215.788 324.372 216.303C323.832 216.81 323.18 217.064 322.416 217.064ZM337.547 238.362C335.64 238.362 333.998 237.976 332.621 237.203C331.253 236.422 330.198 235.32 329.458 233.895C328.717 232.462 328.347 230.768 328.347 228.812C328.347 226.904 328.717 225.23 329.458 223.789C330.198 222.348 331.241 221.225 332.585 220.42C333.937 219.616 335.523 219.213 337.342 219.213C338.565 219.213 339.704 219.41 340.759 219.805C341.821 220.191 342.747 220.775 343.536 221.555C344.333 222.336 344.953 223.318 345.395 224.501C345.838 225.677 346.059 227.053 346.059 228.631V230.043H330.4V226.856H341.218C341.218 226.115 341.057 225.459 340.735 224.888C340.413 224.316 339.966 223.87 339.395 223.548C338.831 223.218 338.175 223.053 337.426 223.053C336.646 223.053 335.953 223.234 335.35 223.596C334.754 223.95 334.287 224.429 333.949 225.033C333.611 225.628 333.438 226.292 333.43 227.025V230.055C333.43 230.973 333.599 231.766 333.937 232.434C334.283 233.102 334.77 233.617 335.398 233.979C336.026 234.342 336.77 234.523 337.632 234.523C338.203 234.523 338.726 234.442 339.201 234.281C339.676 234.12 340.083 233.879 340.421 233.557C340.759 233.235 341.016 232.84 341.194 232.374L345.951 232.688C345.709 233.83 345.214 234.829 344.466 235.682C343.725 236.527 342.767 237.187 341.592 237.662C340.425 238.129 339.077 238.362 337.547 238.362ZM349.416 238V219.455H354.402V222.69H354.596C354.934 221.539 355.501 220.67 356.298 220.082C357.095 219.487 358.012 219.189 359.051 219.189C359.308 219.189 359.586 219.205 359.884 219.237C360.182 219.269 360.443 219.314 360.669 219.37V223.934C360.427 223.862 360.093 223.797 359.667 223.741C359.24 223.684 358.85 223.656 358.495 223.656C357.739 223.656 357.063 223.821 356.467 224.151C355.879 224.473 355.413 224.924 355.066 225.504C354.728 226.083 354.559 226.751 354.559 227.508V238H349.416Z" fill="white"/>
<path d="M381.224 197V178.455H386.126V181.727H386.344C386.73 180.64 387.374 179.783 388.276 179.155C389.177 178.527 390.256 178.213 391.511 178.213C392.783 178.213 393.866 178.531 394.759 179.167C395.653 179.795 396.248 180.648 396.546 181.727H396.739C397.118 180.664 397.802 179.815 398.792 179.179C399.79 178.535 400.969 178.213 402.33 178.213C404.06 178.213 405.465 178.764 406.543 179.867C407.63 180.962 408.173 182.515 408.173 184.528V197H403.042V185.542C403.042 184.512 402.768 183.739 402.221 183.224C401.674 182.709 400.989 182.451 400.168 182.451C399.235 182.451 398.506 182.749 397.983 183.344C397.46 183.932 397.198 184.709 397.198 185.675V197H392.212V185.433C392.212 184.524 391.95 183.799 391.427 183.26C390.912 182.721 390.232 182.451 389.386 182.451C388.815 182.451 388.3 182.596 387.841 182.886C387.39 183.167 387.032 183.566 386.766 184.081C386.501 184.588 386.368 185.184 386.368 185.868V197H381.224ZM417.525 197.35C416.341 197.35 415.287 197.145 414.361 196.734C413.435 196.316 412.703 195.7 412.164 194.887C411.632 194.066 411.367 193.044 411.367 191.82C411.367 190.79 411.556 189.925 411.934 189.224C412.313 188.524 412.828 187.961 413.48 187.534C414.132 187.107 414.872 186.786 415.701 186.568C416.538 186.351 417.416 186.198 418.333 186.109C419.412 185.997 420.281 185.892 420.941 185.795C421.601 185.691 422.08 185.538 422.378 185.337C422.676 185.135 422.825 184.838 422.825 184.443V184.371C422.825 183.606 422.583 183.014 422.1 182.596C421.626 182.177 420.949 181.968 420.072 181.968C419.146 181.968 418.41 182.173 417.863 182.584C417.315 182.986 416.953 183.493 416.776 184.105L412.019 183.719C412.26 182.592 412.735 181.618 413.444 180.797C414.152 179.968 415.065 179.332 416.184 178.889C417.311 178.438 418.615 178.213 420.096 178.213C421.127 178.213 422.113 178.334 423.054 178.575C424.004 178.817 424.845 179.191 425.578 179.698C426.318 180.205 426.902 180.857 427.328 181.654C427.755 182.443 427.968 183.389 427.968 184.491V197H423.091V194.428H422.946C422.648 195.008 422.249 195.519 421.75 195.962C421.251 196.396 420.652 196.738 419.951 196.988C419.251 197.229 418.442 197.35 417.525 197.35ZM418.998 193.8C419.754 193.8 420.422 193.652 421.002 193.354C421.581 193.048 422.036 192.637 422.366 192.122C422.696 191.607 422.861 191.023 422.861 190.371V188.403C422.7 188.508 422.479 188.605 422.197 188.693C421.923 188.774 421.614 188.85 421.267 188.923C420.921 188.987 420.575 189.047 420.229 189.104C419.883 189.152 419.569 189.196 419.287 189.237C418.684 189.325 418.156 189.466 417.706 189.659C417.255 189.852 416.905 190.114 416.655 190.444C416.406 190.766 416.281 191.168 416.281 191.651C416.281 192.352 416.534 192.887 417.042 193.257C417.557 193.619 418.209 193.8 418.998 193.8ZM436.619 191.663L436.631 185.494H437.38L443.32 178.455H449.224L441.244 187.776H440.024L436.619 191.663ZM431.959 197V172.273H437.102V197H431.959ZM443.55 197L438.092 188.923L441.521 185.288L449.575 197H443.55ZM459.436 197.362C457.528 197.362 455.886 196.976 454.51 196.203C453.141 195.422 452.087 194.32 451.346 192.895C450.606 191.462 450.236 189.768 450.236 187.812C450.236 185.904 450.606 184.23 451.346 182.789C452.087 181.348 453.129 180.225 454.474 179.42C455.826 178.616 457.412 178.213 459.231 178.213C460.454 178.213 461.593 178.41 462.648 178.805C463.71 179.191 464.636 179.775 465.425 180.555C466.221 181.336 466.841 182.318 467.284 183.501C467.727 184.677 467.948 186.053 467.948 187.631V189.043H452.288V185.856H463.106C463.106 185.115 462.945 184.459 462.623 183.888C462.301 183.316 461.855 182.87 461.283 182.548C460.72 182.218 460.064 182.053 459.315 182.053C458.534 182.053 457.842 182.234 457.238 182.596C456.643 182.95 456.176 183.429 455.838 184.033C455.5 184.628 455.327 185.292 455.319 186.025V189.055C455.319 189.973 455.488 190.766 455.826 191.434C456.172 192.102 456.659 192.617 457.287 192.979C457.915 193.342 458.659 193.523 459.52 193.523C460.092 193.523 460.615 193.442 461.09 193.281C461.565 193.12 461.971 192.879 462.309 192.557C462.648 192.235 462.905 191.84 463.082 191.374L467.839 191.688C467.598 192.83 467.103 193.829 466.354 194.682C465.614 195.527 464.656 196.187 463.481 196.662C462.314 197.129 460.965 197.362 459.436 197.362ZM486.735 183.743L482.026 184.033C481.946 183.63 481.773 183.268 481.507 182.946C481.241 182.616 480.891 182.354 480.456 182.161C480.03 181.96 479.519 181.859 478.923 181.859C478.126 181.859 477.454 182.028 476.907 182.366C476.359 182.696 476.086 183.139 476.086 183.695C476.086 184.137 476.263 184.512 476.617 184.817C476.971 185.123 477.579 185.369 478.44 185.554L481.797 186.23C483.6 186.6 484.944 187.196 485.829 188.017C486.715 188.838 487.157 189.917 487.157 191.253C487.157 192.468 486.799 193.535 486.083 194.452C485.375 195.37 484.401 196.086 483.161 196.602C481.93 197.109 480.509 197.362 478.899 197.362C476.444 197.362 474.488 196.851 473.031 195.829C471.582 194.799 470.733 193.398 470.483 191.627L475.542 191.362C475.695 192.11 476.066 192.682 476.653 193.076C477.241 193.462 477.993 193.656 478.911 193.656C479.813 193.656 480.537 193.482 481.084 193.136C481.64 192.782 481.921 192.327 481.93 191.772C481.921 191.305 481.724 190.923 481.338 190.625C480.952 190.319 480.356 190.086 479.551 189.925L476.339 189.285C474.528 188.923 473.18 188.295 472.295 187.401C471.417 186.508 470.979 185.369 470.979 183.984C470.979 182.793 471.3 181.767 471.944 180.906C472.596 180.044 473.51 179.38 474.685 178.913C475.868 178.446 477.253 178.213 478.839 178.213C481.181 178.213 483.024 178.708 484.368 179.698C485.721 180.688 486.51 182.036 486.735 183.743ZM501.441 203.955C500.789 203.955 500.177 203.902 499.606 203.798C499.042 203.701 498.575 203.576 498.205 203.423L499.364 199.584C499.968 199.769 500.511 199.87 500.994 199.886C501.485 199.902 501.908 199.789 502.262 199.548C502.624 199.306 502.918 198.896 503.143 198.316L503.445 197.531L496.792 178.455H502.202L506.041 192.074H506.234L510.11 178.455H515.555L508.347 199.004C508.001 200.002 507.53 200.872 506.934 201.612C506.347 202.361 505.602 202.936 504.701 203.339C503.799 203.749 502.713 203.955 501.441 203.955ZM525.969 197.362C524.093 197.362 522.472 196.964 521.103 196.167C519.743 195.362 518.692 194.243 517.952 192.81C517.211 191.37 516.841 189.699 516.841 187.8C516.841 185.884 517.211 184.21 517.952 182.777C518.692 181.336 519.743 180.217 521.103 179.42C522.472 178.616 524.093 178.213 525.969 178.213C527.844 178.213 529.462 178.616 530.823 179.42C532.191 180.217 533.245 181.336 533.986 182.777C534.727 184.21 535.097 185.884 535.097 187.8C535.097 189.699 534.727 191.37 533.986 192.81C533.245 194.243 532.191 195.362 530.823 196.167C529.462 196.964 527.844 197.362 525.969 197.362ZM525.993 193.378C526.846 193.378 527.559 193.136 528.13 192.653C528.702 192.162 529.132 191.494 529.422 190.649C529.72 189.804 529.869 188.842 529.869 187.763C529.869 186.685 529.72 185.723 529.422 184.878C529.132 184.033 528.702 183.365 528.13 182.874C527.559 182.383 526.846 182.137 525.993 182.137C525.132 182.137 524.407 182.383 523.82 182.874C523.24 183.365 522.802 184.033 522.504 184.878C522.214 185.723 522.069 186.685 522.069 187.763C522.069 188.842 522.214 189.804 522.504 190.649C522.802 191.494 523.24 192.162 523.82 192.653C524.407 193.136 525.132 193.378 525.993 193.378ZM550.334 189.104V178.455H555.477V197H550.539V193.631H550.346C549.927 194.718 549.231 195.591 548.257 196.251C547.291 196.911 546.112 197.241 544.72 197.241C543.48 197.241 542.389 196.96 541.448 196.396C540.506 195.833 539.769 195.032 539.238 193.994C538.715 192.955 538.449 191.712 538.441 190.263V178.455H543.585V189.345C543.593 190.44 543.887 191.305 544.466 191.941C545.046 192.577 545.822 192.895 546.796 192.895C547.416 192.895 547.996 192.754 548.535 192.472C549.074 192.183 549.509 191.756 549.839 191.192C550.177 190.629 550.342 189.933 550.334 189.104ZM559.592 197V178.455H564.578V181.69H564.771C565.109 180.539 565.677 179.67 566.474 179.082C567.271 178.487 568.188 178.189 569.227 178.189C569.484 178.189 569.762 178.205 570.06 178.237C570.357 178.269 570.619 178.314 570.844 178.37V182.934C570.603 182.862 570.269 182.797 569.842 182.741C569.416 182.684 569.025 182.656 568.671 182.656C567.915 182.656 567.238 182.821 566.643 183.151C566.055 183.473 565.588 183.924 565.242 184.504C564.904 185.083 564.735 185.751 564.735 186.508V197H559.592ZM102.149 238V213.273H107.293V222.57H107.45C107.675 222.071 108.001 221.563 108.428 221.048C108.862 220.525 109.426 220.09 110.118 219.744C110.818 219.39 111.688 219.213 112.726 219.213C114.078 219.213 115.326 219.567 116.469 220.276C117.612 220.976 118.525 222.034 119.21 223.451C119.894 224.86 120.236 226.626 120.236 228.751C120.236 230.82 119.902 232.567 119.234 233.991C118.574 235.408 117.672 236.483 116.529 237.215C115.394 237.94 114.122 238.302 112.714 238.302C111.716 238.302 110.866 238.137 110.166 237.807C109.474 237.477 108.906 237.062 108.464 236.563C108.021 236.056 107.683 235.545 107.45 235.03H107.22V238H102.149ZM107.184 228.727C107.184 229.83 107.337 230.792 107.643 231.613C107.949 232.434 108.391 233.074 108.971 233.533C109.55 233.983 110.255 234.209 111.084 234.209C111.921 234.209 112.629 233.979 113.209 233.521C113.788 233.054 114.227 232.41 114.525 231.589C114.831 230.76 114.984 229.806 114.984 228.727C114.984 227.657 114.835 226.715 114.537 225.902C114.239 225.089 113.8 224.453 113.221 223.994C112.641 223.536 111.929 223.306 111.084 223.306C110.247 223.306 109.538 223.527 108.959 223.97C108.387 224.413 107.949 225.041 107.643 225.854C107.337 226.667 107.184 227.625 107.184 228.727ZM135.561 230.104V219.455H140.704V238H135.766V234.631H135.573C135.154 235.718 134.458 236.591 133.484 237.251C132.518 237.911 131.339 238.241 129.946 238.241C128.707 238.241 127.616 237.96 126.674 237.396C125.732 236.833 124.996 236.032 124.465 234.994C123.941 233.955 123.676 232.712 123.668 231.263V219.455H128.811V230.345C128.819 231.44 129.113 232.305 129.693 232.941C130.272 233.577 131.049 233.895 132.023 233.895C132.643 233.895 133.222 233.754 133.762 233.472C134.301 233.183 134.735 232.756 135.066 232.192C135.404 231.629 135.569 230.933 135.561 230.104ZM160.249 224.743L155.54 225.033C155.459 224.63 155.286 224.268 155.021 223.946C154.755 223.616 154.405 223.354 153.97 223.161C153.544 222.96 153.032 222.859 152.437 222.859C151.64 222.859 150.968 223.028 150.42 223.366C149.873 223.696 149.599 224.139 149.599 224.695C149.599 225.137 149.777 225.512 150.131 225.817C150.485 226.123 151.093 226.369 151.954 226.554L155.31 227.23C157.113 227.6 158.458 228.196 159.343 229.017C160.228 229.838 160.671 230.917 160.671 232.253C160.671 233.468 160.313 234.535 159.597 235.452C158.888 236.37 157.914 237.086 156.675 237.602C155.443 238.109 154.022 238.362 152.413 238.362C149.958 238.362 148.002 237.851 146.545 236.829C145.096 235.799 144.247 234.398 143.997 232.627L149.056 232.362C149.209 233.11 149.579 233.682 150.167 234.076C150.754 234.462 151.507 234.656 152.425 234.656C153.326 234.656 154.051 234.482 154.598 234.136C155.153 233.782 155.435 233.327 155.443 232.772C155.435 232.305 155.238 231.923 154.852 231.625C154.465 231.319 153.87 231.086 153.065 230.925L149.853 230.285C148.042 229.923 146.694 229.295 145.808 228.401C144.931 227.508 144.492 226.369 144.492 224.984C144.492 223.793 144.814 222.767 145.458 221.906C146.11 221.044 147.024 220.38 148.199 219.913C149.382 219.446 150.767 219.213 152.352 219.213C154.695 219.213 156.538 219.708 157.882 220.698C159.234 221.688 160.023 223.036 160.249 224.743ZM163.91 238V219.455H169.053V238H163.91ZM166.494 217.064C165.729 217.064 165.073 216.81 164.526 216.303C163.986 215.788 163.717 215.172 163.717 214.456C163.717 213.748 163.986 213.14 164.526 212.633C165.073 212.118 165.729 211.86 166.494 211.86C167.258 211.86 167.91 212.118 168.45 212.633C168.997 213.14 169.271 213.748 169.271 214.456C169.271 215.172 168.997 215.788 168.45 216.303C167.91 216.81 167.258 217.064 166.494 217.064ZM178.317 227.278V238H173.174V219.455H178.076V222.727H178.293C178.703 221.648 179.392 220.795 180.358 220.167C181.324 219.531 182.495 219.213 183.871 219.213C185.159 219.213 186.282 219.495 187.24 220.058C188.198 220.622 188.942 221.427 189.473 222.473C190.005 223.511 190.27 224.751 190.27 226.192V238H185.127V227.109C185.135 225.974 184.845 225.089 184.257 224.453C183.67 223.809 182.861 223.487 181.831 223.487C181.138 223.487 180.527 223.636 179.995 223.934C179.472 224.232 179.062 224.666 178.764 225.238C178.474 225.801 178.325 226.482 178.317 227.278ZM202.776 238.362C200.868 238.362 199.226 237.976 197.85 237.203C196.481 236.422 195.427 235.32 194.686 233.895C193.946 232.462 193.575 230.768 193.575 228.812C193.575 226.904 193.946 225.23 194.686 223.789C195.427 222.348 196.469 221.225 197.813 220.42C199.166 219.616 200.751 219.213 202.57 219.213C203.794 219.213 204.933 219.41 205.987 219.805C207.05 220.191 207.976 220.775 208.764 221.555C209.561 222.336 210.181 223.318 210.624 224.501C211.066 225.677 211.288 227.053 211.288 228.631V230.043H195.628V226.856H206.446C206.446 226.115 206.285 225.459 205.963 224.888C205.641 224.316 205.195 223.87 204.623 223.548C204.06 223.218 203.404 223.053 202.655 223.053C201.874 223.053 201.182 223.234 200.578 223.596C199.983 223.95 199.516 224.429 199.178 225.033C198.84 225.628 198.667 226.292 198.659 227.025V230.055C198.659 230.973 198.828 231.766 199.166 232.434C199.512 233.102 199.999 233.617 200.627 233.979C201.254 234.342 201.999 234.523 202.86 234.523C203.432 234.523 203.955 234.442 204.43 234.281C204.905 234.12 205.311 233.879 205.649 233.557C205.987 233.235 206.245 232.84 206.422 232.374L211.179 232.688C210.938 233.83 210.443 234.829 209.694 235.682C208.954 236.527 207.996 237.187 206.82 237.662C205.653 238.129 204.305 238.362 202.776 238.362ZM230.075 224.743L225.366 225.033C225.285 224.63 225.112 224.268 224.847 223.946C224.581 223.616 224.231 223.354 223.796 223.161C223.37 222.96 222.859 222.859 222.263 222.859C221.466 222.859 220.794 223.028 220.247 223.366C219.699 223.696 219.426 224.139 219.426 224.695C219.426 225.137 219.603 225.512 219.957 225.817C220.311 226.123 220.919 226.369 221.78 226.554L225.137 227.23C226.94 227.6 228.284 228.196 229.169 229.017C230.055 229.838 230.497 230.917 230.497 232.253C230.497 233.468 230.139 234.535 229.423 235.452C228.714 236.37 227.74 237.086 226.501 237.602C225.269 238.109 223.849 238.362 222.239 238.362C219.784 238.362 217.828 237.851 216.371 236.829C214.922 235.799 214.073 234.398 213.823 232.627L218.882 232.362C219.035 233.11 219.405 233.682 219.993 234.076C220.581 234.462 221.333 234.656 222.251 234.656C223.152 234.656 223.877 234.482 224.424 234.136C224.98 233.782 225.261 233.327 225.269 232.772C225.261 232.305 225.064 231.923 224.678 231.625C224.291 231.319 223.696 231.086 222.891 230.925L219.679 230.285C217.868 229.923 216.52 229.295 215.634 228.401C214.757 227.508 214.318 226.369 214.318 224.984C214.318 223.793 214.64 222.767 215.284 221.906C215.936 221.044 216.85 220.38 218.025 219.913C219.208 219.446 220.593 219.213 222.178 219.213C224.521 219.213 226.364 219.708 227.708 220.698C229.061 221.688 229.849 223.036 230.075 224.743ZM249.167 224.743L244.458 225.033C244.377 224.63 244.204 224.268 243.939 223.946C243.673 223.616 243.323 223.354 242.888 223.161C242.462 222.96 241.95 222.859 241.355 222.859C240.558 222.859 239.886 223.028 239.338 223.366C238.791 223.696 238.517 224.139 238.517 224.695C238.517 225.137 238.694 225.512 239.049 225.817C239.403 226.123 240.011 226.369 240.872 226.554L244.228 227.23C246.031 227.6 247.376 228.196 248.261 229.017C249.146 229.838 249.589 230.917 249.589 232.253C249.589 233.468 249.231 234.535 248.515 235.452C247.806 236.37 246.832 237.086 245.593 237.602C244.361 238.109 242.94 238.362 241.331 238.362C238.876 238.362 236.92 237.851 235.463 236.829C234.014 235.799 233.165 234.398 232.915 232.627L237.974 232.362C238.127 233.11 238.497 233.682 239.085 234.076C239.672 234.462 240.425 234.656 241.343 234.656C242.244 234.656 242.969 234.482 243.516 234.136C244.071 233.782 244.353 233.327 244.361 232.772C244.353 232.305 244.156 231.923 243.77 231.625C243.383 231.319 242.788 231.086 241.983 230.925L238.771 230.285C236.96 229.923 235.612 229.295 234.726 228.401C233.849 227.508 233.41 226.369 233.41 224.984C233.41 223.793 233.732 222.767 234.376 221.906C235.028 221.044 235.942 220.38 237.117 219.913C238.3 219.446 239.685 219.213 241.27 219.213C243.613 219.213 245.456 219.708 246.8 220.698C248.152 221.688 248.941 223.036 249.167 224.743Z" fill="#FFC84E"/>
<path d="M444.741 366.919L193.43 421.496C108.487 439.943 54.5901 523.715 73.0486 608.606L127.66 859.761C146.118 944.652 229.942 998.515 314.885 980.068L566.196 925.491C651.14 907.044 705.036 823.272 686.578 738.381L631.967 487.226C613.508 402.335 529.684 348.472 444.741 366.919Z" fill="#E4EFF7" fill-opacity="0.2"/>
<path d="M451.079 1015.96C460.349 1015.96 473.617 1003.34 474.189 996.581L440.834 1000.21C434.918 1008.02 418.817 1015.97 412.05 1015.97L451.079 1015.96Z" fill="#AABCBF"/>
<path d="M367.589 989.1L415.908 990.107C422.357 1005.25 441.602 1015.97 451.077 1015.97H410.189C400.468 1015.96 378.595 1010.53 367.589 989.1Z" fill="#D4E3E8"/>
<path d="M86.5697 1001.14C86.4678 1001.15 86.3668 1001.13 86.2731 1001.08C86.1795 1001.04 86.0952 1000.99 86.0256 1000.91C62.311 976.216 39.5879 929.131 44.2188 896.135C44.2326 896.036 44.2655 895.942 44.3158 895.857C44.3661 895.771 44.4327 895.697 44.5119 895.637C44.591 895.577 44.6812 895.534 44.7771 895.509C44.8731 895.484 44.973 895.478 45.0712 895.492C45.1694 895.506 45.2639 895.539 45.3494 895.589C45.4348 895.639 45.5095 895.706 45.5692 895.785C45.6289 895.864 45.6724 895.954 45.6973 896.05C45.7221 896.146 45.7278 896.246 45.7141 896.344C42.1553 921.687 56.9708 968.475 87.1138 999.86C87.2149 999.967 87.2826 1000.1 87.3085 1000.25C87.3344 1000.39 87.3175 1000.54 87.2597 1000.68C87.202 1000.81 87.1059 1000.93 86.9834 1001.01C86.8608 1001.09 86.717 1001.14 86.5697 1001.14V1001.14Z" fill="#9FBFD3"/>
<path d="M83.5685 968.715C83.4541 968.715 83.3411 968.689 83.2384 968.639C83.1357 968.588 83.0459 968.515 82.976 968.425C73.3676 956.164 75.1571 938.034 76.1244 934.188C76.1485 934.092 76.1913 934.002 76.2503 933.922C76.3093 933.843 76.3834 933.775 76.4683 933.725C76.5533 933.674 76.6474 933.64 76.7454 933.626C76.8434 933.611 76.9432 933.616 77.0393 933.64C77.1354 933.664 77.2257 933.707 77.3053 933.766C77.3848 933.825 77.4519 933.899 77.5028 933.984C77.5537 934.069 77.5874 934.163 77.6019 934.261C77.6164 934.359 77.6115 934.458 77.5874 934.554C76.6645 938.244 74.9355 955.697 84.169 967.478C84.2518 967.59 84.3024 967.722 84.3151 967.86C84.3278 967.999 84.3021 968.138 84.2409 968.262C84.1798 968.387 84.0854 968.493 83.9682 968.568C83.851 968.642 83.7155 968.683 83.5765 968.686L83.5685 968.715Z" fill="#9FBFD3"/>
<path d="M210.291 1016.39C201.617 1007.93 211.528 992.676 221.918 1009.82C217.344 994.867 226.871 999.725 228.492 1005.34C226.017 988.865 234.686 976.959 238.406 977.148C242.126 977.338 242.122 996.885 240.788 1002.01C246.6 993.719 252.222 997.243 250.509 1001.91C255.749 997.626 259.275 1003.24 257.083 1007.91C262.322 1004.96 267.562 1009.12 262.725 1016.37H210.291V1016.39Z" fill="#1D4CA6"/>
<path d="M467.422 1016.39C463.134 1010.11 473.617 1010.67 474.189 1012.68C477.817 1001.8 484.958 1004.01 485.245 1009.53C491.439 998.961 499.637 1003.44 499.73 1006.87C503.163 1002.68 509.072 1009.91 506.497 1013.15C511.357 1009.34 509.548 1016.37 509.548 1016.37L467.422 1016.39Z" fill="#1D4CA6"/>
<path d="M48.8708 874.139C52.4656 874.139 55.3798 871.227 55.3798 867.634C55.3798 864.042 52.4656 861.129 48.8708 861.129C45.276 861.129 42.3618 864.042 42.3618 867.634C42.3618 871.227 45.276 874.139 48.8708 874.139Z" fill="#71579F"/>
<path d="M45.9008 856.886C41.7576 858.029 32.0445 838.18 40.1092 835.941C48.1739 833.701 50.044 855.742 45.9008 856.886Z" fill="#71579F"/>
<path d="M39.1643 862.133C37.0444 865.871 16.1349 858.697 20.262 851.423C24.3891 844.148 41.2843 858.399 39.1643 862.133Z" fill="#71579F"/>
<path d="M38.1175 870.603C39.2662 874.744 19.4006 884.447 17.1598 876.387C14.9189 868.327 36.9729 866.455 38.1175 870.603Z" fill="#71579F"/>
<path d="M43.3687 877.329C47.1089 879.447 39.9308 900.344 32.652 896.223C25.3732 892.103 39.6286 875.21 43.3687 877.329Z" fill="#71579F"/>
<path d="M51.8446 878.376C55.9877 877.232 65.6968 897.082 57.6321 899.321C49.5674 901.561 47.6973 879.52 51.8446 878.376Z" fill="#71579F"/>
<path d="M58.5752 873.127C60.6952 869.39 81.6046 876.563 77.4815 883.837C73.3585 891.112 56.4552 876.865 58.5752 873.127Z" fill="#71579F"/>
<path d="M59.6272 864.661C58.4826 860.517 78.3441 850.813 80.585 858.873C82.8258 866.933 60.7678 868.802 59.6272 864.661Z" fill="#71579F"/>
<path d="M54.3879 857.929C50.6478 855.81 57.8258 834.914 65.1046 839.038C72.3834 843.163 58.112 860.048 54.3879 857.929Z" fill="#71579F"/>
<path d="M84.5751 923.868C86.3157 923.868 87.7268 922.457 87.7268 920.718C87.7268 918.978 86.3157 917.568 84.5751 917.568C82.8344 917.568 81.4233 918.978 81.4233 920.718C81.4233 922.457 82.8344 923.868 84.5751 923.868Z" fill="#71579F"/>
<path d="M85.5788 915.414C83.5314 915.011 83.5637 904.334 87.5295 905.083C91.4954 905.832 87.6222 915.797 85.5788 915.414Z" fill="#71579F"/>
<path d="M81.5327 916.253C79.8118 917.429 72.2629 909.853 75.6041 907.573C78.9452 905.293 83.2537 915.081 81.5327 916.253Z" fill="#71579F"/>
<path d="M79.2704 919.715C78.8674 921.757 68.1789 921.728 68.9326 917.761C69.6863 913.794 79.6533 917.668 79.2704 919.715Z" fill="#71579F"/>
<path d="M80.1141 923.753C81.2869 925.473 73.7099 933.017 71.4247 929.682C69.1394 926.347 78.9413 922.037 80.1141 923.753Z" fill="#71579F"/>
<path d="M83.5757 926.019C85.6191 926.422 85.5909 937.1 81.621 936.351C77.6511 935.601 81.5283 925.632 83.5757 926.019Z" fill="#71579F"/>
<path d="M87.6185 925.171C89.3394 923.999 96.8883 931.575 93.5471 933.855C90.206 936.135 85.9015 926.343 87.6185 925.171Z" fill="#71579F"/>
<path d="M89.8835 921.716C90.2866 919.67 100.971 919.702 100.217 923.665C99.4636 927.629 89.4966 923.758 89.8835 921.716Z" fill="#71579F"/>
<path d="M89.0492 917.671C87.8764 915.955 95.4575 908.407 97.7386 911.746C100.02 915.085 90.21 919.391 89.0492 917.671Z" fill="#71579F"/>
<path d="M592.209 786.272C591.503 785.143 591.048 783.875 590.874 782.555C590.701 781.235 590.814 779.892 591.205 778.619C591.552 777.307 592.174 776.082 593.03 775.028C593.886 773.974 594.956 773.114 596.171 772.505C598.686 771.206 601.507 771.001 604.634 771.893C607.687 772.771 609.932 774.429 611.369 776.867C612.074 778.027 612.525 779.324 612.691 780.671C612.857 782.018 612.735 783.385 612.332 784.681C611.988 785.97 611.369 787.168 610.52 788.196C609.67 789.224 608.608 790.057 607.407 790.639C604.906 791.909 602.129 792.106 599.077 791.231C595.949 790.328 593.66 788.676 592.209 786.272ZM644.474 726.286C647.833 731.452 648.495 737.569 646.461 744.637C644.581 751.151 640.989 755.615 635.688 758.029C630.387 760.443 624.221 760.678 617.189 758.734L614.428 766.387L598.827 761.908L603.861 742.425L610.104 744.214C615.445 745.747 619.708 746.258 622.892 745.748C626.076 745.238 628.168 743.251 629.167 739.787C629.863 737.37 629.752 735.276 628.833 733.503C627.914 731.731 626.276 730.511 623.92 729.842C621.426 729.125 619.277 729.277 617.471 730.297C615.665 731.318 614.419 733.042 613.731 735.469L596.985 730.664C597.933 726.623 599.99 722.926 602.926 719.99C605.809 717.141 609.424 715.272 613.771 714.383C618.119 713.494 622.955 713.815 628.28 715.346C635.718 717.47 641.116 721.117 644.474 726.286Z" fill="#71579F"/>
<path d="M630.755 926.267H525.684V1015.96H630.755V926.267Z" fill="#F5993F"/>
<path d="M525.685 926.517H630.756L599.835 889.336H494.764L525.685 926.517Z" fill="#E08F46"/>
<path d="M686.488 926.267H630.752V1015.96H686.488V926.267Z" fill="#D68134"/>
<path d="M661.671 887.765H717.403L686.486 926.517H630.755L661.671 887.765Z" fill="#C6712C"/>
<path d="M320.938 588.935C313.313 601.699 306.546 616.941 307.69 621.891C308.835 626.841 323.268 654.694 339.067 647.343C339.067 647.343 339.172 721.314 316.138 709.416C316.412 695.802 281.384 669.23 269.475 647.79C263.405 636.875 267.411 623.135 273.38 607.31C277.765 595.69 285.197 578.451 285.197 578.451L320.261 582.929L320.938 588.935Z" fill="#71579F"/>
<path d="M282.815 546.643L390.328 573.791L510.977 550.929L424.34 520.639L282.815 546.643Z" fill="#874C21"/>
<path d="M390.329 573.791V606.972L501.825 584.36L510.977 550.929L390.329 573.791Z" fill="#C6712C"/>
<path d="M424.341 520.639L435.497 554.071L525.555 585.79L510.977 550.929L424.341 520.639Z" fill="#C6712C"/>
<path d="M430.919 409.487L526.986 452.348L510.977 550.929L424.341 520.64L430.919 409.487Z" fill="#D68134"/>
<path d="M282.816 546.642L276.238 580.073L369.734 604.643L390.329 573.789L282.816 546.642Z" fill="#C6712C"/>
<path d="M488.959 573.226C488.959 569.319 483.719 564.272 483.719 564.272L481.527 573.226L486.577 574.604L488.959 573.226Z" fill="#142232"/>
<path d="M487.913 539.641C486.019 543.733 484.878 555.406 484.374 564.017C484.1 568.641 484.02 572.379 484.1 573.591C484.29 576.363 467.6 567.465 460.809 563.739C459.076 562.789 457.988 562.168 457.988 562.168L452.345 548.784C451.676 528.927 448.673 509.492 451.632 508.401C454.497 507.337 457.677 523.304 457.863 524.266C456.585 512.183 457.584 501.88 460.253 501.207C462.921 500.534 465.685 522.357 465.685 522.357C465.589 514.781 464.073 497.787 467.83 497.542C471.586 497.296 472.122 521.068 472.122 521.068C472.553 512.449 472.928 501.735 476.507 501.638C480.086 501.541 478.889 531.496 480.271 534.022C481.654 536.547 485.938 521.068 489.416 521.31C494.293 521.64 489.98 535.17 487.913 539.641Z" fill="#FDBA9D"/>
<g style="mix-blend-mode:multiply" opacity="0.2">
<g style="mix-blend-mode:multiply" opacity="0.2">
<path d="M484.1 573.586C484.289 576.357 467.6 567.46 460.809 563.734L461.518 557.257C466.479 563.025 478.76 565.684 484.374 564.012C484.1 568.636 484.023 572.374 484.1 573.586Z" fill="#5E5E5E"/>
</g>
</g>
<path d="M487.098 966.618C487.098 966.618 493.546 973.961 493.679 979.958C493.679 979.958 492.011 1002.96 514.234 998.084C536.457 993.206 545.509 978.138 545.509 978.138C545.509 978.138 528.582 972.499 514.234 946.269L488.403 947.075L487.098 966.618Z" fill="#FDBA9D"/>
<path d="M334.28 956.195V988.39C334.28 988.39 295.588 998.488 296.733 982.868C297.431 973.736 297.421 964.564 296.705 955.434L334.28 956.195Z" fill="#FDBA9D"/>
<path d="M372.019 812.564C371.515 813.197 370.81 814.111 369.931 815.243C365.687 820.729 357.51 831.475 349.86 841.919C341.147 853.817 333.118 865.317 332.376 868.189C330.845 874.094 333.328 926.287 334.279 960.382L289.191 962.437C288.907 962.448 288.629 962.354 288.41 962.173C288.191 961.991 288.047 961.735 288.006 961.454C286.725 952.19 277.262 882.911 279.381 858.47C280.53 845.327 298.969 816.54 313.885 782.275C317.916 772.978 336.189 756.75 358.679 767.223C381.168 777.695 377.738 805.326 372.019 812.564Z" fill="#5B418C"/>
<g style="mix-blend-mode:multiply" opacity="0.2">
<g style="mix-blend-mode:multiply" opacity="0.2">
<path d="M369.931 815.244C365.687 820.73 357.51 831.477 349.86 841.921C349.167 828.407 353.971 805.577 357.3 798.162L369.931 815.244Z" fill="#5E5E5E"/>
</g>
</g>
<path d="M426.388 794.357C441.458 833.665 476.651 895.831 514.202 946.312L481.596 970.753C481.135 971.098 480.559 971.254 479.987 971.189C479.414 971.124 478.888 970.843 478.517 970.402C466.426 956.071 378.327 850.856 360.758 809.502C356.273 798.937 347.99 765.155 371.435 756.963C394.879 748.77 419.738 776.945 426.388 794.357Z" fill="#5B418C"/>
<path d="M329.849 796.205C332.065 800.02 329.506 811.946 325.855 811.108C322.203 810.271 303.958 802.396 300.899 790.748C300.113 787.755 300.971 781.459 302.829 780.247C304.687 779.035 329.849 796.205 329.849 796.205Z" fill="#E0C3FC"/>
<path d="M384.473 795.588C388.048 807.16 391.7 809.81 396.27 809.448C413.197 808.09 430.56 793.654 433.833 783.234C434.937 779.706 433.43 768.847 433.43 768.847C433.43 768.847 409.328 787.705 409.373 788.18C409.417 788.656 384.473 795.588 384.473 795.588Z" fill="#E0C3FC"/>
<path d="M344.098 646.457C344.098 646.457 372.423 636.219 376.885 639.578V635.361C376.885 635.361 375.127 631.969 372.048 631.808C368.969 631.647 353.162 632.146 348.874 635.288C344.585 638.43 344.098 646.457 344.098 646.457Z" fill="#142232"/>
<path d="M359.63 639.98C328.024 646.304 326.806 664.171 325.855 674.08C324.904 683.988 312.555 770.655 311.979 777.515C311.403 784.374 339.788 788.527 352.77 787.613C368.972 786.469 407.095 777.898 417.006 771.61C413.003 749.131 416.711 646.481 394.702 642.646C372.692 638.812 378.31 636.242 359.63 639.98Z" fill="#D4E3E8"/>
<path d="M355.201 587.691C353.343 590.309 351.863 595.501 354.104 597.596C356.345 599.69 359.44 591.216 359.44 591.216L355.201 587.691Z" fill="#0D1926"/>
<path d="M375.654 623.667C373.361 629.116 373.663 637.361 372.164 640.33C370.665 643.298 365.123 653.646 356.583 653.646C350.71 653.646 347.793 647.785 348.72 644.43C349.058 643.194 349.715 640.527 350.416 637.639C351.186 634.417 352.028 630.957 352.5 628.883C352.774 627.731 352.939 627.006 352.939 627.006C352.939 627.006 353.745 626.728 355.019 626.305C355.422 626.16 355.902 626.011 356.417 625.846C363.209 623.659 377.416 619.494 375.654 623.667Z" fill="#FDBA9D"/>
<g style="mix-blend-mode:multiply" opacity="0.2">
<g style="mix-blend-mode:multiply" opacity="0.2">
<path d="M363.112 629.584C356.26 632.359 353.604 636.222 350.42 637.639C351.19 634.417 352.033 630.957 352.504 628.883C353.5 627.828 354.406 626.917 355.023 626.305C355.523 625.814 355.829 625.5 355.829 625.5L356.418 625.826L363.112 629.584Z" fill="#5E5E5E"/>
</g>
</g>
<path d="M357.728 591.001C348.792 604.293 343.146 619.861 350.219 627.715C357.292 635.569 375.526 624.09 375.526 624.09C375.526 624.09 382.313 603.729 382.458 603.145C382.603 602.561 384.961 599.713 380.6 597.285C376.239 594.856 372.45 591.928 368.875 591.428C365.301 590.929 357.728 591.001 357.728 591.001Z" fill="#FDBA9D"/>
<path d="M380.314 599.93C371.895 599.242 359.513 595.19 355.439 589.144C353.149 585.744 352.436 577.354 358.155 574.784C368.562 570.104 369.364 583.38 375.808 584.262C380.693 584.927 396.363 590.856 387.843 598.641C392.276 600.071 389.858 610.906 384.506 613.408C379.153 615.909 376.312 609.714 376.312 609.714C376.356 606.894 377.67 603.145 380.314 599.93Z" fill="#142232"/>
<path d="M376.311 609.716C384.815 599.932 391.747 619.645 376.811 617.147L374.022 612.862L376.311 609.716Z" fill="#FDBA9D"/>
<path d="M364.488 668.171C358.68 680.839 365.588 709.795 371.307 725.226C377.026 740.657 371.021 777.942 375.595 786.659C380.17 795.375 384.176 800.373 403.614 793.945C423.053 787.517 435.639 771.514 435.494 763.801C435.349 756.087 425.201 731.082 427.776 710.508C430.352 689.934 409.64 644.733 394.703 642.647C380.363 640.633 377.167 637.765 377.167 637.765" fill="#71579F"/>
<path d="M373.592 633.217C382 638.985 366.317 651.218 365.648 655.125C364.979 659.032 362.497 666.838 364.5 668.171C366.503 669.504 379.9 651.987 380.802 647.887C382.257 641.289 381.173 634.595 373.782 631.808L373.592 633.217Z" fill="#E0C3FC"/>
<path d="M488.96 573.227C488.984 577.126 488.96 581.122 488.875 585.105C488.472 605.808 486.687 626.326 483.672 632.376C472.851 654.09 438.069 686.663 435.498 691.098C432.926 695.533 429.202 703.093 427.779 710.528C426.357 717.964 386.46 714.238 386.46 687.811C386.46 661.385 385.271 648.133 392.437 642.329C409.558 644.46 439.064 624.949 445.976 614.021C449.825 607.935 451.845 584.735 452.425 567.338C452.711 558.948 452.675 551.912 452.352 548.81C462.662 559.496 482.669 574.359 488.96 573.227Z" fill="#71579F"/>
<path d="M350.719 667.88C356.487 678.856 344.271 712.706 339.14 726.763C333.232 742.955 330.414 757.56 330.374 762.208C330.273 773.828 335.807 795.736 331.325 796.211C326.844 796.686 305.213 788.78 300.924 778.972C296.636 769.164 302.734 744.683 307.881 736.204C313.027 727.725 322.128 684.676 323.103 669.789C323.611 662.084 331.567 649.618 339.068 647.362L346.004 655.53L350.719 667.88Z" fill="#71579F"/>
<path d="M350.985 635.256C345.29 637.765 345.342 642.152 345.717 645.003C346.217 649.007 352.867 657.147 352.936 660.434C353.004 663.721 352.077 668.22 350.719 667.865C349.361 667.511 338.854 654.718 339.071 648.149C339.289 641.58 345.479 634.587 351.36 633.681L350.985 635.256Z" fill="#E0C3FC"/>
<path d="M336.378 1016.39H245.454C245.45 1014.46 245.563 1012.53 245.792 1010.61C245.974 1009.15 246.243 1007.7 246.598 1006.27C249.057 996.304 255.151 991.29 260.946 988.313C261.688 987.91 262.417 987.58 263.143 987.258C265.936 986.013 268.523 985.175 270.438 984.39C284.23 979.822 294.966 970.78 297.147 968.814C297.182 968.785 297.216 968.754 297.248 968.722C299.17 966.957 312.132 965.677 311.656 976.338L334.291 976.391L335.294 995.523L335.862 1006.27L336.011 1009.13L336.378 1016.39Z" fill="#202E51"/>
<path d="M336 1009.14C331.942 1010.61 325.521 1012.31 325.521 1008.2C325.521 1002.2 327.617 995.523 335.291 995.523L335.859 1006.27L336 1009.14Z" fill="#354668"/>
<path d="M311.645 976.338C307.691 978.578 295.016 984.865 277.669 989.82L267.569 991.962L260.935 988.313C261.677 987.91 262.406 987.58 263.132 987.258C265.925 986.013 268.46 985.039 270.427 984.39C284.218 979.822 294.955 970.78 297.136 968.814C297.171 968.785 297.205 968.754 297.236 968.722C299.159 966.957 312.12 965.677 311.645 976.338Z" fill="#354668"/>
<path d="M580.026 1015.96H492.395L492.576 1010.83L492.741 1006.27L493.019 998.341L493.676 979.958L521.651 978.863C522.227 975.145 530.3 967.411 533.52 970.178C536.74 972.946 547.292 978.963 555.01 982.814C556.509 983.567 558.383 984.336 560.419 985.271C561.43 985.734 562.478 986.238 563.542 986.801C569.737 990.084 576.484 995.369 578.994 1006.27C579.16 1007 579.313 1007.75 579.438 1008.53C579.84 1010.99 580.037 1013.47 580.026 1015.96Z" fill="#202E51"/>
<path d="M503.255 1007.32C503.255 1013.36 496.347 1012 492.575 1010.83L492.74 1006.27L493.018 998.342C498.399 998.523 503.255 999.82 503.255 1007.32Z" fill="#354668"/>
<path d="M563.55 986.801C560.035 988.207 552.382 991.232 551.721 991.103C550.858 990.958 521.65 978.863 521.65 978.863C522.227 975.145 530.3 967.411 533.52 970.178C536.74 972.946 547.291 978.963 555.01 982.814C556.509 983.567 558.383 984.336 560.418 985.271C561.438 985.734 562.486 986.237 563.55 986.801Z" fill="#354668"/>
<path d="M264.805 433.489L282.816 546.644L424.342 520.64L430.919 409.487L264.805 433.489Z" fill="#F5993F"/>
<path d="M282.816 546.643L261.371 580.074L407.475 552.927L424.342 520.639L282.816 546.643Z" fill="#F5993F"/>
<path d="M567.048 603.592L601.741 626.712C601.741 626.712 584.774 664.361 562.284 674.644C549.133 661.122 523.782 638.071 523.782 638.071C537.312 632.738 560.567 616.925 567.048 603.592Z" fill="#D4E3E8"/>
<path d="M258.512 733.799C276.524 736.94 319.923 725.513 327.673 723.226C331.704 744.658 341.143 774.089 341.143 774.089C316.267 788.09 252.507 789.234 241.646 784.965C249.364 774.947 258.799 738.084 258.512 733.799Z" fill="#D4E3E8"/>
<path d="M501.256 753.227L452.936 792.66C452.936 822.664 488.403 864.827 525.841 863.744L542.426 812.377C528.703 804.373 502.965 767.8 501.256 753.227Z" fill="#D4E3E8"/>
<path d="M189.993 842.01C196.655 853.111 236.785 870.04 241.646 870.737C236.922 882.252 232.618 916.807 232.618 916.807C209.846 919.441 160.696 890.163 156.251 880.867C162.498 877.121 187.216 852.837 189.993 842.01Z" fill="#D4E3E8"/>
<path d="M181.811 616.162C181.811 616.162 187.34 662.454 206.972 674.264C194.011 685.884 153.772 719.601 153.772 719.601C140.048 708.36 134.519 641.119 138.142 630.07L181.811 616.162Z" fill="#D4E3E8"/>
<path d="M358.756 611.82C357.865 611.82 357.233 611.526 356.87 610.946C355.701 609.065 358.446 605.42 361.706 602.641C361.782 602.577 361.869 602.528 361.963 602.497C362.058 602.467 362.157 602.455 362.256 602.463C362.355 602.471 362.451 602.498 362.539 602.543C362.627 602.588 362.706 602.65 362.77 602.726C362.835 602.801 362.883 602.888 362.914 602.982C362.944 603.077 362.956 603.176 362.948 603.275C362.94 603.373 362.913 603.47 362.868 603.558C362.823 603.646 362.761 603.725 362.686 603.789C359.006 606.943 357.805 609.565 358.168 610.149C358.284 610.334 359.215 610.6 361.9 609.452C361.991 609.413 362.089 609.393 362.188 609.392C362.287 609.39 362.385 609.409 362.477 609.446C362.569 609.482 362.652 609.537 362.723 609.606C362.794 609.675 362.85 609.758 362.889 609.849C362.928 609.94 362.949 610.038 362.95 610.136C362.951 610.235 362.932 610.334 362.896 610.425C362.859 610.517 362.804 610.601 362.735 610.672C362.666 610.742 362.583 610.799 362.492 610.838C360.949 611.49 359.703 611.82 358.756 611.82Z" fill="#142232"/>
<path d="M357.348 619.47C357.18 619.47 357.017 619.415 356.885 619.312C356.753 619.21 356.658 619.066 356.617 618.904C356.575 618.742 356.589 618.571 356.656 618.417C356.722 618.264 356.838 618.137 356.985 618.057C360.435 616.155 366.134 615.785 369.076 616.643C369.178 616.662 369.276 616.703 369.362 616.762C369.448 616.821 369.521 616.897 369.576 616.985C369.631 617.074 369.667 617.173 369.682 617.276C369.696 617.379 369.69 617.484 369.662 617.585C369.634 617.685 369.585 617.779 369.519 617.86C369.453 617.94 369.371 618.006 369.278 618.054C369.185 618.101 369.083 618.129 368.979 618.135C368.875 618.141 368.771 618.125 368.673 618.089C366.009 617.315 360.757 617.686 357.718 619.378C357.605 619.441 357.477 619.473 357.348 619.47Z" fill="#142232"/>
<path d="M488.961 573.227C488.985 577.126 488.961 581.122 488.876 585.105C482.577 589.709 461.325 576.276 452.442 567.338C452.728 558.948 452.692 551.912 452.369 548.81C462.663 559.496 482.669 574.359 488.961 573.227Z" fill="#E0C3FC"/>
<path d="M380.886 615.544C380.698 615.538 380.52 615.463 380.385 615.333C380.25 615.204 380.167 615.029 380.154 614.842C380.14 614.655 380.197 614.47 380.312 614.322C380.427 614.174 380.592 614.074 380.777 614.042C381.046 614.009 381.305 613.922 381.539 613.786C381.773 613.65 381.976 613.467 382.137 613.25C382.298 613.032 382.412 612.784 382.474 612.52C382.535 612.257 382.542 611.984 382.494 611.718C382.446 611.315 382.253 610.944 381.95 610.674C381.768 610.538 381.558 610.442 381.336 610.393C381.113 610.344 380.883 610.344 380.66 610.392C380.462 610.421 380.26 610.37 380.099 610.25C379.939 610.131 379.832 609.952 379.804 609.754C379.775 609.556 379.826 609.354 379.946 609.194C380.065 609.033 380.244 608.927 380.442 608.898C380.873 608.818 381.317 608.83 381.742 608.936C382.168 609.042 382.566 609.238 382.909 609.51C383.502 610.017 383.886 610.726 383.985 611.5C384.063 611.962 384.047 612.435 383.938 612.89C383.828 613.346 383.628 613.775 383.349 614.151C383.069 614.527 382.717 614.843 382.312 615.08C381.908 615.316 381.46 615.469 380.994 615.528L380.886 615.544Z" fill="#142232"/>
<path d="M336.379 1016.39H245.455C245.42 1012.98 245.801 1009.59 246.587 1006.27H335.851L336.379 1016.39Z" fill="white"/>
<path d="M580.026 1015.96H492.395L492.741 1006.27H578.99C579.704 1009.45 580.051 1012.7 580.026 1015.96Z" fill="white"/>
<path d="M291.296 1009.53C291.296 1012.92 289.744 1015.1 287.193 1016.38H265.877C259.064 1014.89 252.355 1012.96 245.793 1010.6C245.975 1009.14 246.244 1007.69 246.6 1006.26C249.376 995.02 256.776 990.082 263.124 987.246C271.878 983.758 291.296 990.581 291.296 1009.53Z" fill="white"/>
<path d="M579.445 1008.53C561.76 1014.07 538.658 1019.66 538.57 1011.12C538.424 997.271 547.577 985.281 560.418 985.272C567.27 988.434 576.052 993.501 578.994 1006.27C579.167 1007 579.32 1007.75 579.445 1008.53Z" fill="white"/>
<path d="M306.978 983.499C306.841 983.499 306.706 983.461 306.589 983.39C306.472 983.319 306.376 983.218 306.313 983.096C304.072 978.911 297.506 974.497 286.387 975.846C286.288 975.858 286.189 975.851 286.093 975.825C285.998 975.798 285.909 975.753 285.831 975.692C285.753 975.631 285.688 975.555 285.639 975.469C285.591 975.383 285.56 975.288 285.548 975.189C285.524 974.991 285.58 974.791 285.703 974.633C285.826 974.475 286.007 974.373 286.205 974.348C298.087 972.914 305.18 977.779 307.643 982.403C307.736 982.58 307.755 982.786 307.697 982.977C307.639 983.167 307.508 983.328 307.332 983.422C307.222 983.477 307.1 983.503 306.978 983.499Z" fill="#142232"/>
<path d="M294.194 991C294.043 991.001 293.895 990.956 293.77 990.871C293.644 990.786 293.548 990.666 293.493 990.525C291.074 984.459 281.954 980.052 277.472 980.503C277.373 980.513 277.274 980.504 277.179 980.475C277.084 980.446 276.995 980.399 276.919 980.336C276.842 980.273 276.778 980.196 276.732 980.109C276.685 980.021 276.656 979.925 276.646 979.827C276.636 979.728 276.646 979.629 276.674 979.534C276.703 979.439 276.75 979.351 276.813 979.274C276.876 979.197 276.953 979.134 277.041 979.087C277.128 979.04 277.224 979.011 277.323 979.001C282.345 978.51 292.235 983.21 294.895 989.969C294.941 990.083 294.957 990.207 294.944 990.329C294.93 990.452 294.887 990.569 294.818 990.67C294.749 990.772 294.656 990.855 294.547 990.913C294.438 990.97 294.317 991 294.194 991Z" fill="#142232"/>
<path d="M527.63 985.594C527.483 985.594 527.339 985.55 527.216 985.469C527.093 985.388 526.997 985.273 526.938 985.138C526.879 985.003 526.861 984.854 526.886 984.709C526.911 984.564 526.978 984.429 527.078 984.322C533.051 977.962 541.366 975.098 545.078 975.497C545.276 975.517 545.459 975.616 545.585 975.772C545.711 975.927 545.77 976.126 545.749 976.324C545.728 976.523 545.629 976.705 545.474 976.831C545.318 976.957 545.119 977.016 544.92 976.995C541.608 976.661 533.744 979.412 528.179 985.357C528.108 985.432 528.023 985.491 527.929 985.532C527.835 985.573 527.733 985.594 527.63 985.594Z" fill="#142232"/>
<path d="M538.566 990C538.386 989.999 538.212 989.935 538.074 989.818C537.923 989.688 537.83 989.502 537.815 989.303C537.8 989.104 537.864 988.907 537.993 988.755C542.471 983.519 548.67 980.111 553.385 980.297C553.484 980.299 553.582 980.321 553.673 980.362C553.763 980.403 553.845 980.461 553.912 980.533C553.98 980.605 554.033 980.69 554.068 980.783C554.103 980.876 554.119 980.975 554.115 981.074C554.113 981.173 554.092 981.271 554.052 981.361C554.012 981.452 553.954 981.534 553.882 981.602C553.81 981.67 553.725 981.723 553.632 981.757C553.539 981.792 553.44 981.807 553.341 981.803C549.085 981.678 543.265 984.941 539.138 989.758C539.065 989.837 538.977 989.899 538.878 989.941C538.779 989.983 538.673 990.003 538.566 990Z" fill="#142232"/>
<path d="M557.15 1015.64C549.291 1008.25 552.93 998.679 562.76 1008.11C563.442 989.249 577.27 991.267 579.14 1006.9C586.886 985.665 603.471 986.885 594.749 1002.92C608.618 973.517 629.918 960.519 612.886 1002.52C625.037 988.512 632.755 994.228 627.322 1002.8C635.186 994.659 637.189 1001.66 634.899 1006.52C642.622 998.228 644.907 1005.37 645.052 1008.53C652.057 997.817 655.059 1007.1 654.487 1011.53C662.064 1003.96 660.633 1015.96 660.633 1015.96L557.15 1015.64Z" fill="#9DD0FF"/>
<path d="M575.238 1016.39C570.949 1010.11 581.432 1010.67 582.005 1012.68C585.632 1001.8 592.774 1004.01 593.06 1009.53C599.255 998.961 607.452 1003.44 607.569 1006.87C610.999 1002.68 616.907 1009.91 614.332 1013.15C619.193 1009.34 617.383 1016.37 617.383 1016.37L575.238 1016.39Z" fill="#DBEEFF"/>
<path d="M57.3106 1016.39C51.3054 1010.67 69.0348 1013.34 72.2752 1014.87C64.5531 1007.62 63.2191 998.961 80.8518 1006.87C68.4625 994.864 73.1337 987.723 88.5699 1005.34C70.5583 979.816 78.4336 965.123 84.5678 964.1C94.8613 962.384 97.9123 995.054 97.7188 1001.53C99.1496 988.96 106.964 990.104 109.633 1000.1C105.344 980.006 113.348 963.624 121.643 964.482C129.937 965.34 120.309 989.624 120.881 993.435C127.838 985.339 138.796 989.149 132.972 1001.89C141.932 990.462 144.789 996.846 144.314 1005.61C152.507 991.892 161.088 997.321 159.56 1006.85C169.282 1000.75 168.024 1007.99 167.186 1009.89C175.287 1004.66 174.904 1012.47 170.523 1016.37L57.3106 1016.39Z" fill="#DBEEFF"/>
<path d="M712.087 1024H53.0252C51.763 1023.97 50.5641 1023.46 49.6836 1022.58C48.8032 1021.7 48.3105 1020.53 48.3105 1019.3C48.3105 1018.08 48.8032 1016.9 49.6836 1016.03C50.5641 1015.15 51.763 1014.64 53.0252 1014.61H712.075C713.338 1014.64 714.537 1015.15 715.417 1016.03C716.297 1016.9 716.79 1018.08 716.79 1019.3C716.79 1020.53 716.297 1021.7 715.417 1022.58C714.537 1023.46 713.338 1023.97 712.075 1024H712.087Z" fill="#6A7592"/>
<path d="M296.219 476.901L293.938 457.494L306.788 455.984L307.186 459.367L298.439 460.395L298.983 465.019L306.877 464.092L307.274 467.475L299.38 468.402L300.322 476.419L296.219 476.901Z" fill="#874C21"/>
<path d="M317.295 474.713C315.823 474.886 314.513 474.723 313.366 474.224C312.224 473.717 311.296 472.936 310.583 471.88C309.869 470.817 309.424 469.541 309.249 468.05C309.072 466.546 309.208 465.198 309.657 464.005C310.106 462.806 310.827 461.831 311.821 461.08C312.821 460.322 314.057 459.856 315.529 459.683C317.001 459.51 318.308 459.677 319.45 460.183C320.597 460.683 321.528 461.463 322.242 462.526C322.955 463.582 323.4 464.862 323.577 466.366C323.752 467.857 323.616 469.202 323.167 470.401C322.718 471.594 321.994 472.569 320.994 473.327C320 474.078 318.767 474.54 317.295 474.713ZM316.946 471.583C317.616 471.505 318.153 471.25 318.557 470.818C318.96 470.38 319.236 469.816 319.386 469.126C319.542 468.435 319.57 467.666 319.47 466.82C319.371 465.973 319.165 465.232 318.854 464.596C318.548 463.959 318.149 463.475 317.655 463.142C317.161 462.809 316.579 462.682 315.91 462.761C315.234 462.84 314.688 463.1 314.272 463.54C313.862 463.978 313.579 464.543 313.424 465.234C313.274 465.924 313.249 466.692 313.349 467.539C313.448 468.385 313.651 469.127 313.956 469.764C314.268 470.4 314.674 470.883 315.174 471.215C315.68 471.54 316.27 471.663 316.946 471.583Z" fill="#874C21"/>
<path d="M327.051 473.278L325.34 458.723L329.254 458.263L329.552 460.802L329.704 460.784C329.863 459.85 330.228 459.115 330.799 458.581C331.37 458.04 332.063 457.721 332.878 457.625C333.08 457.602 333.299 457.589 333.536 457.586C333.773 457.584 333.982 457.595 334.164 457.618L334.585 461.2C334.389 461.166 334.121 461.146 333.781 461.141C333.441 461.136 333.132 461.15 332.854 461.183C332.26 461.253 331.745 461.445 331.307 461.758C330.876 462.065 330.551 462.462 330.333 462.949C330.121 463.435 330.05 463.975 330.12 464.569L331.088 472.804L327.051 473.278Z" fill="#874C21"/>
<path d="M344.527 477.066C343.219 477.219 342.077 477.171 341.099 476.921C340.129 476.676 339.333 476.28 338.711 475.732C338.09 475.183 337.652 474.537 337.398 473.792L341.073 472.851C341.22 473.128 341.432 473.378 341.708 473.602C341.985 473.826 342.334 473.99 342.756 474.094C343.185 474.203 343.693 474.224 344.281 474.155C345.159 474.052 345.857 473.752 346.375 473.255C346.9 472.765 347.104 472.02 346.987 471.022L346.674 468.359L346.504 468.379C346.374 468.804 346.154 469.218 345.842 469.619C345.531 470.021 345.11 470.368 344.581 470.661C344.052 470.954 343.402 471.145 342.631 471.236C341.538 471.364 340.514 471.229 339.557 470.829C338.606 470.422 337.804 469.725 337.15 468.738C336.502 467.745 336.083 466.443 335.893 464.832C335.7 463.183 335.806 461.774 336.213 460.606C336.62 459.437 337.237 458.525 338.063 457.871C338.896 457.216 339.846 456.826 340.914 456.7C341.728 456.604 342.427 456.663 343.009 456.877C343.591 457.084 344.073 457.373 344.456 457.744C344.845 458.108 345.154 458.476 345.383 458.846L345.535 458.828L345.248 456.383L349.256 455.912L350.983 470.61C351.129 471.848 350.947 472.92 350.439 473.825C349.93 474.73 349.164 475.454 348.139 475.998C347.121 476.546 345.917 476.902 344.527 477.066ZM343.554 468.053C344.205 467.977 344.736 467.751 345.146 467.376C345.563 466.994 345.855 466.486 346.024 465.851C346.198 465.209 346.235 464.462 346.135 463.609C346.035 462.756 345.828 462.031 345.514 461.434C345.2 460.83 344.795 460.382 344.299 460.088C343.804 459.794 343.231 459.685 342.58 459.761C341.916 459.839 341.379 460.085 340.966 460.499C340.553 460.906 340.266 461.439 340.107 462.098C339.947 462.757 339.916 463.501 340.013 464.328C340.112 465.169 340.314 465.882 340.62 466.467C340.932 467.045 341.331 467.475 341.819 467.757C342.313 468.032 342.891 468.131 343.554 468.053Z" fill="#874C21"/>
<path d="M360.789 469.602C359.317 469.775 358.007 469.611 356.86 469.112C355.718 468.606 354.79 467.825 354.077 466.768C353.363 465.706 352.918 464.429 352.743 462.938C352.566 461.435 352.702 460.086 353.152 458.894C353.6 457.694 354.321 456.719 355.315 455.968C356.315 455.211 357.551 454.745 359.023 454.572C360.495 454.399 361.802 454.566 362.944 455.072C364.091 455.571 365.022 456.352 365.736 457.415C366.45 458.471 366.895 459.751 367.071 461.254C367.246 462.745 367.11 464.09 366.662 465.29C366.213 466.482 365.488 467.458 364.488 468.216C363.494 468.967 362.261 469.429 360.789 469.602ZM360.441 466.472C361.11 466.393 361.647 466.138 362.051 465.706C362.454 465.268 362.731 464.704 362.88 464.014C363.036 463.323 363.064 462.555 362.965 461.708C362.865 460.862 362.66 460.12 362.348 459.485C362.042 458.848 361.643 458.363 361.149 458.031C360.655 457.698 360.073 457.571 359.404 457.65C358.728 457.729 358.182 457.989 357.766 458.428C357.356 458.867 357.074 459.432 356.918 460.123C356.768 460.813 356.743 461.581 356.843 462.428C356.942 463.274 357.145 464.016 357.45 464.652C357.762 465.288 358.168 465.772 358.668 466.104C359.174 466.429 359.765 466.552 360.441 466.472Z" fill="#874C21"/>
<path d="M376.576 452.701L376.933 455.734L368.167 456.764L367.811 453.731L376.576 452.701ZM369.391 450.01L373.428 449.536L375.023 463.106C375.066 463.479 375.158 463.763 375.296 463.958C375.433 464.147 375.608 464.27 375.82 464.329C376.038 464.386 376.283 464.399 376.554 464.367C376.744 464.345 376.932 464.307 377.117 464.253C377.302 464.193 377.444 464.147 377.543 464.116L378.531 467.046C378.336 467.133 378.061 467.239 377.704 467.364C377.348 467.496 376.909 467.602 376.387 467.682C375.418 467.834 374.55 467.805 373.782 467.594C373.021 467.383 372.401 466.988 371.924 466.41C371.446 465.832 371.154 465.066 371.048 464.111L369.391 450.01Z" fill="#874C21"/>
<path d="M300.037 509.388L297.756 489.981L305.413 489.081C306.885 488.908 308.172 489.041 309.274 489.482C310.376 489.916 311.256 490.597 311.916 491.525C312.582 492.446 312.99 493.551 313.142 494.84C313.293 496.129 313.149 497.299 312.709 498.349C312.269 499.4 311.553 500.263 310.563 500.936C309.579 501.609 308.341 502.033 306.85 502.208L301.97 502.782L301.583 499.493L305.8 498.998C306.59 498.905 307.225 498.693 307.705 498.361C308.19 498.022 308.53 497.595 308.726 497.079C308.927 496.555 308.99 495.975 308.915 495.337C308.839 494.692 308.644 494.145 308.328 493.695C308.019 493.239 307.589 492.908 307.04 492.704C306.49 492.493 305.817 492.434 305.021 492.528L302.254 492.853L304.14 508.906L300.037 509.388Z" fill="#874C21"/>
<path d="M321.031 507.2C320.102 507.309 319.256 507.245 318.491 507.008C317.726 506.765 317.095 506.349 316.596 505.761C316.104 505.165 315.801 504.388 315.688 503.427C315.593 502.619 315.662 501.922 315.894 501.338C316.126 500.753 316.479 500.263 316.951 499.868C317.423 499.473 317.975 499.152 318.606 498.905C319.243 498.658 319.917 498.457 320.629 498.302C321.465 498.115 322.138 497.952 322.647 497.816C323.155 497.673 323.517 497.508 323.732 497.323C323.948 497.137 324.037 496.89 324.001 496.58L323.994 496.524C323.923 495.923 323.679 495.481 323.262 495.197C322.85 494.913 322.3 494.811 321.612 494.892C320.885 494.977 320.326 495.206 319.934 495.579C319.542 495.945 319.304 496.377 319.222 496.873L315.452 497.009C315.538 496.102 315.821 495.294 316.301 494.584C316.781 493.868 317.439 493.284 318.276 492.834C319.119 492.376 320.122 492.079 321.284 491.942C322.093 491.847 322.878 491.851 323.639 491.954C324.407 492.056 325.102 492.272 325.724 492.602C326.352 492.932 326.87 493.39 327.278 493.976C327.686 494.556 327.94 495.278 328.042 496.144L329.196 505.961L325.367 506.411L325.13 504.393L325.016 504.406C324.836 504.889 324.571 505.327 324.22 505.72C323.868 506.107 323.429 506.431 322.902 506.691C322.375 506.946 321.751 507.115 321.031 507.2ZM321.86 504.278C322.454 504.208 322.964 504.029 323.392 503.742C323.818 503.449 324.137 503.085 324.349 502.65C324.56 502.215 324.636 501.742 324.576 501.23L324.394 499.685C324.278 499.782 324.113 499.879 323.9 499.974C323.693 500.062 323.456 500.151 323.191 500.24C322.926 500.322 322.66 500.402 322.393 500.478C322.126 500.548 321.884 500.611 321.666 500.669C321.201 500.794 320.8 500.953 320.464 501.146C320.128 501.34 319.877 501.577 319.712 501.859C319.546 502.135 319.485 502.462 319.529 502.841C319.594 503.391 319.842 503.788 320.274 504.032C320.712 504.268 321.241 504.35 321.86 504.278Z" fill="#874C21"/>
<path d="M343.216 493.765L339.547 494.427C339.446 494.118 339.277 493.85 339.039 493.622C338.8 493.387 338.501 493.214 338.142 493.103C337.789 492.984 337.378 492.952 336.911 493.007C336.285 493.081 335.773 493.275 335.375 493.591C334.976 493.901 334.802 494.274 334.853 494.709C334.894 495.057 335.067 495.334 335.374 495.542C335.68 495.749 336.179 495.886 336.873 495.952L339.569 496.173C341.019 496.297 342.129 496.641 342.899 497.203C343.67 497.766 344.117 498.572 344.24 499.62C344.352 500.574 344.169 501.445 343.692 502.231C343.221 503.016 342.522 503.668 341.597 504.187C340.677 504.699 339.585 505.029 338.322 505.177C336.395 505.404 334.813 505.183 333.575 504.515C332.343 503.84 331.547 502.819 331.188 501.452L335.134 500.777C335.323 501.35 335.666 501.765 336.164 502.02C336.661 502.269 337.269 502.351 337.989 502.267C338.697 502.184 339.25 501.981 339.647 501.659C340.05 501.33 340.23 500.947 340.185 500.51C340.135 500.144 339.945 499.863 339.615 499.664C339.283 499.46 338.794 499.332 338.148 499.28L335.568 499.074C334.113 498.956 332.997 498.588 332.219 497.968C331.448 497.348 330.999 496.495 330.871 495.408C330.761 494.473 330.92 493.638 331.345 492.902C331.778 492.166 332.434 491.561 333.313 491.086C334.199 490.61 335.264 490.3 336.508 490.153C338.347 489.937 339.839 490.156 340.985 490.809C342.138 491.461 342.881 492.447 343.216 493.765Z" fill="#874C21"/>
<path d="M350.184 503.495L344.512 489.405L348.596 488.925L352.001 498.439L352.134 498.424L353.334 488.368L357.343 487.897L360.874 497.339L360.997 497.325L362.072 487.341L366.146 486.862L363.905 501.882L359.632 502.385L356.054 493.525L355.874 493.546L354.448 502.994L350.184 503.495Z" fill="#874C21"/>
<path d="M376.256 500.719C374.784 500.892 373.474 500.729 372.326 500.23C371.185 499.724 370.257 498.942 369.544 497.886C368.829 496.824 368.385 495.547 368.21 494.056C368.033 492.552 368.169 491.204 368.618 490.011C369.066 488.812 369.788 487.837 370.782 487.086C371.782 486.328 373.017 485.863 374.489 485.69C375.961 485.517 377.268 485.683 378.41 486.19C379.558 486.689 380.489 487.47 381.203 488.532C381.916 489.589 382.361 490.869 382.538 492.372C382.713 493.863 382.577 495.208 382.128 496.407C381.679 497.6 380.955 498.575 379.955 499.333C378.961 500.084 377.728 500.546 376.256 500.719ZM375.907 497.59C376.577 497.511 377.114 497.256 377.518 496.824C377.921 496.386 378.197 495.822 378.347 495.132C378.503 494.441 378.531 493.672 378.431 492.826C378.332 491.979 378.126 491.238 377.814 490.602C377.509 489.966 377.109 489.481 376.616 489.148C376.122 488.816 375.54 488.689 374.87 488.767C374.194 488.847 373.648 489.106 373.233 489.546C372.823 489.985 372.54 490.55 372.384 491.24C372.235 491.93 372.21 492.699 372.309 493.545C372.409 494.392 372.611 495.133 372.917 495.77C373.229 496.406 373.634 496.89 374.135 497.222C374.64 497.547 375.231 497.669 375.907 497.59Z" fill="#874C21"/>
<path d="M386.011 499.285L384.301 484.729L388.215 484.269L388.513 486.809L388.665 486.791C388.824 485.856 389.189 485.122 389.76 484.587C390.331 484.046 391.024 483.728 391.838 483.632C392.041 483.608 392.26 483.595 392.497 483.593C392.734 483.591 392.943 483.601 393.125 483.625L393.546 487.207C393.35 487.172 393.082 487.152 392.742 487.148C392.402 487.143 392.093 487.157 391.815 487.189C391.221 487.259 390.705 487.451 390.268 487.765C389.837 488.072 389.512 488.469 389.294 488.955C389.082 489.441 389.011 489.981 389.081 490.575L390.048 498.81L386.011 499.285Z" fill="#874C21"/>
<path d="M401.644 497.688C400.539 497.818 399.504 497.651 398.54 497.188C397.582 496.718 396.775 495.957 396.12 494.907C395.471 493.85 395.051 492.509 394.86 490.886C394.664 489.218 394.769 487.8 395.176 486.631C395.583 485.456 396.199 484.541 397.025 483.887C397.857 483.225 398.807 482.832 399.874 482.707C400.689 482.611 401.385 482.67 401.961 482.884C402.542 483.091 403.025 483.38 403.408 483.752C403.796 484.116 404.102 484.483 404.325 484.854L404.448 484.84L403.591 477.543L407.618 477.07L409.899 496.477L405.919 496.945L405.645 494.614L405.474 494.634C405.332 495.061 405.111 495.493 404.81 495.932C404.515 496.364 404.108 496.742 403.589 497.065C403.076 497.388 402.428 497.596 401.644 497.688ZM402.546 494.325C403.197 494.248 403.726 494.007 404.133 493.6C404.545 493.187 404.834 492.644 404.998 491.971C405.169 491.298 405.203 490.528 405.102 489.663C405 488.797 404.791 488.06 404.476 487.45C404.161 486.84 403.756 486.388 403.26 486.094C402.765 485.8 402.191 485.691 401.541 485.768C400.877 485.846 400.339 486.091 399.927 486.505C399.514 486.918 399.229 487.458 399.07 488.124C398.911 488.789 398.881 489.542 398.98 490.382C399.079 491.229 399.284 491.964 399.594 492.587C399.91 493.203 400.314 493.668 400.805 493.982C401.303 494.288 401.883 494.403 402.546 494.325Z" fill="#874C21"/>
</g>
<defs>
<linearGradient id="paint0_linear_3_2105" x1="-5.14686e-05" y1="-17.4998" x2="756.427" y2="1125.07" gradientUnits="userSpaceOnUse">
<stop stop-color="#180054"/>
<stop offset="1" stop-color="#F8F0FF"/>
</linearGradient>
<clipPath id="clip0_3_2105">
<rect width="50" height="50" fill="white" transform="translate(101 113)"/>
</clipPath>
</defs>
</svg>
